<svg xmlns="http://www.w3.org/2000/svg" xmlns:xlink="http://www.w3.org/1999/xlink" width="36.173" height="46.453" viewBox="0 0 36.173 46.453"><defs><style>.a{opacity:0.664;}.b{fill:url(#a);}</style><linearGradient id="a" x1="0.709" y1="0.099" x2="0.175" y2="0.819" gradientUnits="objectBoundingBox"><stop offset="0" stop-color="#280071"/><stop offset="1" stop-color="#982058"/></linearGradient></defs><g class="a" transform="translate(-0.055)"><path class="b" d="M35.768,9.405,18.308.1a.867.867,0,0,0-.827,0L.506,9.41a.869.869,0,0,0-.451.762V22.325A25.162,25.162,0,0,0,15.136,45.354l2.356,1.027a.868.868,0,0,0,.692,0l2.655-1.147A25.113,25.113,0,0,0,36.228,22.084V10.173A.87.87,0,0,0,35.768,9.405ZM34.489,22.084A23.378,23.378,0,0,1,20.159,43.636l-.006,0-2.312,1-2.009-.876A23.422,23.422,0,0,1,1.793,22.325V10.687L17.905,1.857l16.584,8.837Zm0,0" transform="translate(0 0)"/><path class="b" d="M81.372,149.667A.869.869,0,0,0,80.05,150.8l4.591,5.377a.869.869,0,0,0,1.209.11l10.693-8.7a.869.869,0,0,0-1.1-1.348L85.412,154.4Zm0,0" transform="translate(-69.88 -127.905)"/></g></svg>