<?xml version="1.0" encoding="UTF-8"?>
<svg version="1.1" xmlns="http://www.w3.org/2000/svg" width="500" height="500">
<path d="M0 0 C0.74861298 0.00093658 1.49722595 0.00187317 2.26852417 0.00283813 C61.60155133 0.16322543 116.76447199 21.48426212 162.4375 59.1875 C163.00098145 59.63206543 163.56446289 60.07663086 164.14501953 60.53466797 C165.61239853 61.70797101 167.02969435 62.94334389 168.4375 64.1875 C168.4375 64.8475 168.4375 65.5075 168.4375 66.1875 C168.97890625 66.4040625 169.5203125 66.620625 170.078125 66.84375 C173.25395344 68.65249997 175.64478081 71.10473799 178.1875 73.6875 C178.69410156 74.18636719 179.20070313 74.68523437 179.72265625 75.19921875 C183.4375 78.93408861 183.4375 78.93408861 183.4375 81.1875 C184.4275 81.5175 185.4175 81.8475 186.4375 82.1875 C189.21315319 85.16181957 191.67279316 88.3905853 194.18164062 91.59179688 C195.3835079 93.11889729 196.60538697 94.6301839 197.828125 96.140625 C220.89777458 125.16373254 236.33682855 159.10505494 244.4375 195.1875 C244.73479004 196.46705566 244.73479004 196.46705566 245.03808594 197.77246094 C258.89467149 258.36289321 247.37980049 326.155195 214.71533203 378.97216797 C208.48049476 388.7688057 201.98902461 398.3522162 194.4375 407.1875 C193.66921875 408.13753906 192.9009375 409.08757812 192.109375 410.06640625 C180.93940729 423.78804156 168.42637213 436.42108116 154.16015625 446.91357422 C152.40188165 448.21384022 150.66903929 449.5432982 148.9375 450.87890625 C112.6972962 478.53201445 62.65948605 499.61787231 16.4375 499.1875 C14.43135928 497.18135928 15.26361758 493.11341059 15.24995422 490.36299133 C15.24204414 489.53332562 15.23413406 488.70365991 15.22598428 487.84885281 C15.20076432 485.04679546 15.18295691 482.24474139 15.1652832 479.44262695 C15.14920722 477.44238549 15.13282751 475.44214645 15.11616516 473.44190979 C14.97142174 455.16877134 14.89641656 436.89494423 14.83724689 418.62135029 C14.79264422 405.10565111 14.71546528 391.59096447 14.59566242 378.07571822 C14.51433175 368.58185849 14.47112136 359.08827679 14.45594472 349.59408349 C14.44576372 343.91926481 14.41835212 338.24572039 14.34963417 332.57128334 C14.28568378 327.23157405 14.26880922 321.89378452 14.28812981 316.55374718 C14.28697472 314.59369533 14.26867223 312.63356749 14.231987 310.67385864 C13.96832889 295.82320549 13.96832889 295.82320549 17.63846397 291.73705101 C20.20816533 290.17662107 22.60215229 289.15769175 25.4375 288.1875 C34.45329562 281.81488944 40.18187259 273.43175223 43.10546875 262.74609375 C44.97425752 248.34542735 42.99459536 236.14729916 34.4375 224.1875 C29.96250967 218.67156468 24.84194965 215.17624317 18.4375 212.1875 C17.79683594 211.86652344 17.15617187 211.54554688 16.49609375 211.21484375 C7.37049421 207.37530578 -5.34657733 207.68479476 -14.625 210.8125 C-25.52664812 215.59655659 -34.92807499 223.14896005 -39.8203125 234.25390625 C-43.77119682 244.54699961 -44.36918057 257.41133207 -40.6015625 267.88671875 C-36.99193987 275.87945458 -32.15195721 284.97775322 -23.60697556 288.35594273 C-19.87028579 289.89485803 -17.42534561 291.31279124 -14.5625 294.1875 C-12.25960403 300.26976087 -13.0503325 307.32775294 -13.20019531 313.70874023 C-13.20358176 315.71959733 -13.20167713 317.73046927 -13.19488525 319.74131775 C-13.19144432 325.19244627 -13.26194638 330.64040118 -13.34577274 336.09079242 C-13.42083155 341.78945455 -13.42784064 347.48819096 -13.44207764 353.18727112 C-13.47936352 363.97544287 -13.57781851 374.76215394 -13.69827151 385.54968268 C-13.83243953 397.83235496 -13.89838859 410.11509734 -13.95861673 422.39832008 C-14.08402071 447.66218963 -14.29506599 472.92476295 -14.5625 498.1875 C-19.9296622 499.33488515 -24.33987588 498.85417278 -29.75 498.125 C-31.26219116 497.92136841 -31.26219116 497.92136841 -32.80493164 497.71362305 C-67.64659702 492.71866111 -101.95330035 481.45131664 -131.5625 462.1875 C-132.59117187 461.53265625 -133.61984375 460.8778125 -134.6796875 460.203125 C-142.285679 455.26416948 -149.48657845 449.84823724 -156.5625 444.1875 C-157.58988281 443.36765625 -158.61726563 442.5478125 -159.67578125 441.703125 C-172.86218276 430.9614745 -185.32734303 418.79225597 -195.5625 405.1875 C-196.20960938 404.33414062 -196.85671875 403.48078125 -197.5234375 402.6015625 C-199.58226686 399.82661859 -201.58225585 397.01906406 -203.5625 394.1875 C-203.94519043 393.6414209 -204.32788086 393.0953418 -204.72216797 392.53271484 C-232.73705388 352.30013181 -248.11012148 305.19317198 -249.5625 256.1875 C-249.60375 255.09308594 -249.645 253.99867188 -249.6875 252.87109375 C-250.26158476 223.62865137 -245.32259506 194.69271338 -235.5625 167.1875 C-235.31387207 166.465625 -235.06524414 165.74375 -234.80908203 165 C-226.84735107 141.91808402 -215.1764785 120.69765838 -200.5625 101.1875 C-199.96953125 100.39214844 -199.3765625 99.59679687 -198.765625 98.77734375 C-197.06724304 96.54922837 -195.32653781 94.36400594 -193.5625 92.1875 C-192.81097656 91.25035156 -192.05945313 90.31320313 -191.28515625 89.34765625 C-179.59886317 75.01647543 -166.48323821 62.11168956 -151.5625 51.1875 C-150.46969886 50.36505246 -149.37725034 49.54213618 -148.28515625 48.71875 C-116.28297926 24.91018513 -79.59388379 9.81365599 -40.4375 2.875 C-39.53870117 2.71555908 -38.63990234 2.55611816 -37.71386719 2.3918457 C-25.19952125 0.30880226 -12.65715608 -0.02058417 0 0 Z " fill="#1166DC" transform="translate(249.5625,0.8125)"/>
<path d="M0 0 C1.65 0.66 3.3 1.32 5 2 C5 69.32 5 136.64 5 206 C-2.48482974 207.49696595 -8.80203571 206.29722265 -16 204 C-15.01 203.01 -15.01 203.01 -14 202 C-11.994845 202.30077325 -9.99601306 202.6435691 -8 203 C-4.7 203 -1.4 203 2 203 C2 137 2 71 2 3 C1.34 2.67 0.68 2.34 0 2 C0 1.34 0 0.68 0 0 Z " fill="#1865D0" transform="translate(230,293)"/>
<path d="M0 0 C0.66 0.33 1.32 0.66 2 1 C1.67 67.66 1.34 134.32 1 203 C8.59 202.34 16.18 201.68 24 201 C26.64 201 29.28 201 32 201 C32 201.33 32 201.66 32 202 C8.52507042 205.94140845 8.52507042 205.94140845 0 206 C-1.76641593 204.23358407 -1.12512473 201.88940266 -1.13374341 199.53626537 C-1.13151268 198.74610688 -1.12928196 197.95594839 -1.12698364 197.1418457 C-1.12854363 196.30865216 -1.13010362 195.47545862 -1.13171089 194.61701679 C-1.13572445 191.80325403 -1.13252987 188.98954449 -1.12939453 186.17578125 C-1.13074841 184.16742928 -1.13252827 182.15907756 -1.13470459 180.15072632 C-1.13928047 174.67981233 -1.13748873 169.20891711 -1.1343255 163.73800278 C-1.1318027 158.02626239 -1.13413922 152.31452365 -1.13571167 146.6027832 C-1.1375336 137.00894887 -1.13512645 127.41512223 -1.13037109 117.82128906 C-1.12492843 106.71217769 -1.12669107 95.60308466 -1.1321975 84.49397373 C-1.13672797 74.97469456 -1.1373795 65.45542092 -1.13475883 55.93614101 C-1.13319569 50.24246863 -1.1330033 44.54880489 -1.13629532 38.85513306 C-1.13917307 33.50364951 -1.13720011 28.15218974 -1.13140106 22.80070877 C-1.13007295 20.83058334 -1.13046844 18.86045592 -1.13266373 16.89033127 C-1.13537323 14.21291145 -1.13199657 11.5355691 -1.12698364 8.8581543 C-1.12921436 8.06799581 -1.13144509 7.27783731 -1.13374341 6.46373463 C-1.11414984 1.11414984 -1.11414984 1.11414984 0 0 Z " fill="#ACC5E6" transform="translate(266,294)"/>
<path d="M0 0 C0.33 0 0.66 0 1 0 C1 67.32 1 134.64 1 204 C-3.01221324 204.80244265 -4.98892255 205.07611488 -8.8125 204.5625 C-9.60269531 204.46066406 -10.39289063 204.35882813 -11.20703125 204.25390625 C-11.79871094 204.17011719 -12.39039063 204.08632813 -13 204 C-13 203.67 -13 203.34 -13 203 C-9.04 203 -5.08 203 -1 203 C-0.67 136.01 -0.34 69.02 0 0 Z " fill="#DBFFFF" transform="translate(234,295)"/>
<path d="M0 0 C1.32 0.33 2.64 0.66 4 1 C4 66.67 4 132.34 4 200 C3.67 200 3.34 200 3 200 C2.67 134.99 2.34 69.98 2 3 C1.34 2.67 0.68 2.34 0 2 C0 1.34 0 0.68 0 0 Z " fill="#3774C4" transform="translate(230,293)"/>
<path d="M0 0 C0.66 0.99 1.32 1.98 2 3 C1.67 3.33 1.34 3.66 1 4 C1.020625 5.11375 1.04125 6.2275 1.0625 7.375 C1 11 1 11 -1 14 C-1.99 14.495 -1.99 14.495 -3 15 C-3.42985694 17.32353985 -3.42985694 17.32353985 -3.5625 20 C-3.90381679 24.90381679 -3.90381679 24.90381679 -5 26 C-5.5476212 28.98702474 -5.94398584 31.98932456 -6.36791992 34.99633789 C-6.74550435 37.52361327 -7.21101074 39.96253726 -7.75952148 42.46459961 C-10.70103278 56.269841 -10.33461541 70.00696375 -10.1875 84.0625 C-10.17241876 86.58658051 -10.15873647 89.11066979 -10.14648438 91.63476562 C-10.11376841 97.75670489 -10.06384451 103.87831028 -10 110 C-10.33 110 -10.66 110 -11 110 C-13.49866731 79.29164454 -13.49866731 79.29164454 -13 69 C-12.95891113 68.12182617 -12.91782227 67.24365234 -12.87548828 66.33886719 C-12.2296105 53.64829729 -10.9206259 41.18979151 -8.625 28.6875 C-8.42817627 27.61024658 -8.23135254 26.53299316 -8.02856445 25.4230957 C-6.54107384 17.77052681 -4.41825834 10.40789618 -2 3 C-1.34 3 -0.68 3 0 3 C0 2.01 0 1.02 0 0 Z " fill="#79A6DB" transform="translate(13,174)"/>
<path d="M0 0 C0.33 0 0.66 0 1 0 C3.1102951 13.33865771 4.63687459 26.49566055 5 40 C5.02964844 41.0621875 5.05929687 42.124375 5.08984375 43.21875 C5.20034574 52.15713313 4.55482718 61.08313465 4 70 C3.34 70 2.68 70 2 70 C1.97494385 68.73220703 1.9498877 67.46441406 1.92407227 66.15820312 C1.29906809 33.06838453 1.29906809 33.06838453 0 0 Z " fill="#5A8CCF" transform="translate(495,205)"/>
<path d="M0 0 C0.33 0 0.66 0 1 0 C1 19.8 1 39.6 1 60 C12.385 59.01 12.385 59.01 24 58 C26.64 58 29.28 58 32 58 C32 58.33 32 58.66 32 59 C29.10517871 59.48603652 26.20935673 59.96386943 23.3125 60.4375 C22.51521484 60.57220703 21.71792969 60.70691406 20.89648438 60.84570312 C13.88631748 61.98173808 7.15911026 62.44929921 0 63 C0 42.21 0 21.42 0 0 Z " fill="#3A71C1" transform="translate(266,437)"/>
<path d="M0 0 C0.66 0 1.32 0 2 0 C0.47528573 4.27903682 -2.7166881 6.33414352 -6.3125 8.8125 C-6.88162109 9.23208984 -7.45074219 9.65167969 -8.03710938 10.08398438 C-10.85432317 12.04730099 -12.4377 13.0459174 -15.91796875 12.76171875 C-16.60503906 12.51035156 -17.29210937 12.25898438 -18 12 C-18 11.34 -18 10.68 -18 10 C-17.34 10 -16.68 10 -16 10 C-16 9.34 -16 8.68 -16 8 C-14.66666667 7 -13.33333333 6 -12 5 C-12 4.34 -12 3.68 -12 3 C-8.00439392 0.16977903 -4.57262677 1.23789554 0 2 C0 1.34 0 0.68 0 0 Z " fill="#1D6ED9" transform="translate(397,449)"/>
<path d="M0 0 C-5.8546501 4.9539347 -11.65183773 5.29392649 -19 5 C-19 5.66 -19 6.32 -19 7 C-19.93972656 7.30744141 -19.93972656 7.30744141 -20.8984375 7.62109375 C-21.71570313 7.89050781 -22.53296875 8.15992188 -23.375 8.4375 C-24.18710938 8.70433594 -24.99921875 8.97117187 -25.8359375 9.24609375 C-28.01031799 9.95179729 -28.01031799 9.95179729 -30 11 C-32.6723621 11.13415472 -35.32250488 11.04318541 -38 11 C-35.92843989 8.92843989 -34.92805616 8.48139083 -32.21875 7.59765625 C-31.46384277 7.34838379 -30.70893555 7.09911133 -29.93115234 6.84228516 C-29.12887207 6.58495605 -28.3265918 6.32762695 -27.5 6.0625 C-26.68354004 5.79743652 -25.86708008 5.53237305 -25.02587891 5.25927734 C-23.40913012 4.73622102 -21.7914726 4.21596395 -20.17285156 3.69873047 C-18.39925901 3.12839093 -16.63218661 2.53780869 -14.8671875 1.94140625 C-9.70703633 0.2510119 -5.43333273 -0.30185182 0 0 Z " fill="#5388D3" transform="translate(196,8)"/>
<path d="M0 0 C2.25245881 2.68841859 3.88213958 4.64641875 5 8 C5.350625 8.680625 5.70125 9.36125 6.0625 10.0625 C7 12 7 12 7 14 C7.99 14.33 8.98 14.66 10 15 C10 16.32 10 17.64 10 19 C10.99 19.33 11.98 19.66 13 20 C13 21.98 13 23.96 13 26 C10.9471309 23.33487169 9.13629236 20.61338758 7.375 17.75 C4.00161298 12.61325158 -0.26451707 8.86204941 -5 5 C-4.34 4.67 -3.68 4.34 -3 4 C-2.67 3.01 -2.34 2.02 -2 1 C-1.34 0.67 -0.68 0.34 0 0 Z " fill="#377BD9" transform="translate(279,211)"/>
<path d="M0 0 C0.66 0 1.32 0 2 0 C2 0.66 2 1.32 2 2 C2.66 2 3.32 2 4 2 C5.625 3.375 5.625 3.375 7 5 C7 5.66 7 6.32 7 7 C9.31 7.66 11.62 8.32 14 9 C13.01 9.33 12.02 9.66 11 10 C11.18828772 12.44480079 11.18828772 12.44480079 12 15 C13.88316159 16.10836423 13.88316159 16.10836423 16 17 C17.75 19.125 17.75 19.125 19 21 C18.34 21.66 17.68 22.32 17 23 C2.52403283 7.57209848 2.52403283 7.57209848 0 0 Z " fill="#4D86D5" transform="translate(45,392)"/>
<path d="M0 0 C0.33 0 0.66 0 1 0 C1 16.83 1 33.66 1 51 C-3.01221324 51.80244265 -4.98892255 52.07611488 -8.8125 51.5625 C-9.60269531 51.46066406 -10.39289063 51.35882813 -11.20703125 51.25390625 C-11.79871094 51.17011719 -12.39039063 51.08632813 -13 51 C-13 50.67 -13 50.34 -13 50 C-9.04 50 -5.08 50 -1 50 C-0.67 33.5 -0.34 17 0 0 Z " fill="#C8EAF6" transform="translate(234,448)"/>
<path d="M0 0 C1.15482283 3.46446849 0.81680666 4.2824229 -0.328125 7.640625 C-0.78638672 8.99994141 -0.78638672 8.99994141 -1.25390625 10.38671875 C-1.74697266 11.80404297 -1.74697266 11.80404297 -2.25 13.25 C-2.56324219 14.17941406 -2.87648438 15.10882813 -3.19921875 16.06640625 C-4.93140739 21.1479721 -6.80705204 26.09970887 -9 31 C-9.33 31 -9.66 31 -10 31 C-10.125 27.625 -10.125 27.625 -10 24 C-9.34 23.34 -8.68 22.68 -8 22 C-7.32348793 19.80295489 -7.32348793 19.80295489 -6.875 17.375 C-6.70742188 16.55773437 -6.53984375 15.74046875 -6.3671875 14.8984375 C-6.24601562 14.27195312 -6.12484375 13.64546875 -6 13 C-5.34 13 -4.68 13 -4 13 C-4 11.02 -4 9.04 -4 7 C-3.34 7 -2.68 7 -2 7 C-2 5.02 -2 3.04 -2 1 C-1.34 0.67 -0.68 0.34 0 0 Z " fill="#5C90D6" transform="translate(489,318)"/>
<path d="M0 0 C-1.5 2.5 -1.5 2.5 -4 5 C-6.80138565 5.45442324 -9.13800875 5.23849927 -12 5 C-12.20625 5.61875 -12.4125 6.2375 -12.625 6.875 C-14.57109132 9.88259567 -16.58925136 10.2183701 -20 11 C-20.66 10.67 -21.32 10.34 -22 10 C-19.3759159 8.35270289 -16.75057863 6.70741379 -14.125 5.0625 C-13.37863281 4.59392578 -12.63226563 4.12535156 -11.86328125 3.64257812 C-11.14785156 3.19462891 -10.43242188 2.74667969 -9.6953125 2.28515625 C-9.03547363 1.87144775 -8.37563477 1.45773926 -7.69580078 1.03149414 C-4.58893214 -0.85830143 -3.48409913 -1.04522974 0 0 Z " fill="#3C7ED2" transform="translate(136,31)"/>
<path d="M0 0 C0 0.66 0 1.32 0 2 C1.32 2.33 2.64 2.66 4 3 C1.264631 4.3676845 -0.173248 3.36338945 -2.96679688 2.50683594 C-6.53675152 1.61691929 -10.08674544 1.61914441 -13.75 1.625 C-14.93045898 1.62197876 -14.93045898 1.62197876 -16.13476562 1.61889648 C-21.94534363 1.71959251 -26.70864995 2.78313123 -32.03125 5.22265625 C-32.6809375 5.47917969 -33.330625 5.73570312 -34 6 C-34.66 5.67 -35.32 5.34 -36 5 C-34.67828145 2.35656291 -32.95631336 1.72881047 -30.28662109 0.64648438 C-25.56924852 -0.6872336 -20.68486963 -0.62649999 -15.8125 -0.75 C-14.73291016 -0.79253906 -13.65332031 -0.83507812 -12.54101562 -0.87890625 C-3.88078711 -1.16919324 -3.88078711 -1.16919324 0 0 Z " fill="#91B7E5" transform="translate(264,208)"/>
<path d="M0 0 C2.97 0 5.94 0 9 0 C4.55844911 2.96103393 -0.30649641 3.85375289 -5.4375 5.1875 C-6.48744141 5.47302734 -7.53738281 5.75855469 -8.61914062 6.05273438 C-9.63041016 6.31763672 -10.64167969 6.58253906 -11.68359375 6.85546875 C-13.06889282 7.22128052 -13.06889282 7.22128052 -14.48217773 7.59448242 C-17.04490043 8.00723161 -18.56866862 7.83322307 -21 7 C-20.34 6.67 -19.68 6.34 -19 6 C-19 5.34 -19 4.68 -19 4 C-17.948125 3.90912109 -17.948125 3.90912109 -16.875 3.81640625 C-11.23182765 3.31802826 -5.61635883 2.74178324 0 2 C0 1.34 0 0.68 0 0 Z " fill="#5E94D8" transform="translate(320,487)"/>
<path d="M0 0 C0.66 0 1.32 0 2 0 C1.41671196 4.16346978 -0.87821866 6.8363592 -3.375 10.125 C-4.16648437 11.17945313 -4.95796875 12.23390625 -5.7734375 13.3203125 C-8 16 -8 16 -11 18 C-11.625 16.125 -11.625 16.125 -12 14 C-11.34 13.34 -10.68 12.68 -10 12 C-9.67 11.01 -9.34 10.02 -9 9 C-7.68 9.33 -6.36 9.66 -5 10 C-4.855625 9.236875 -4.71125 8.47375 -4.5625 7.6875 C-4 5 -4 5 -3 2 C-2.01 2 -1.02 2 0 2 C0 1.34 0 0.68 0 0 Z " fill="#4F88D6" transform="translate(453,391)"/>
<path d="M0 0 C0.66 0 1.32 0 2 0 C3.76462683 3.08809695 4 4.23312136 4 8 C4.99 8.33 5.98 8.66 7 9 C7.12117188 9.71027344 7.24234375 10.42054688 7.3671875 11.15234375 C7.53476562 12.07144531 7.70234375 12.99054688 7.875 13.9375 C8.11863281 15.31228516 8.11863281 15.31228516 8.3671875 16.71484375 C8.57601563 17.46894531 8.78484375 18.22304688 9 19 C9.66 19.33 10.32 19.66 11 20 C10.67 21.65 10.34 23.3 10 25 C6.61219634 21.17438786 5.10257521 16.64252024 3.3125 11.9375 C2.99216797 11.12216797 2.67183594 10.30683594 2.34179688 9.46679688 C0 3.39010861 0 3.39010861 0 0 Z " fill="#4F8AD4" transform="translate(13,328)"/>
<path d="M0 0 C0 0.33 0 0.66 0 1 C-10.65907 2.78964322 -21.19402929 4.43739111 -32 5 C-31.67 4.01 -31.34 3.02 -31 2 C-27.33385091 1.66080904 -23.6670121 1.32971919 -20 1 C-18.97003906 0.90460938 -17.94007813 0.80921875 -16.87890625 0.7109375 C-11.22521274 0.20678649 -5.67585202 -0.109151 0 0 Z " fill="#6C9CD8" transform="translate(298,495)"/>
<path d="M0 0 C0.33 0 0.66 0 1 0 C3.04528428 12.43126684 4.48167015 24.38737805 4 37 C3.67 37 3.34 37 3 37 C3 32.71 3 28.42 3 24 C2.34 24 1.68 24 1 24 C0.67 16.08 0.34 8.16 0 0 Z " fill="#7AA8E0" transform="translate(495,205)"/>
<path d="M0 0 C5.97201091 0.53129376 10.94616743 1.84610941 16.5 4.0625 C17.22703125 4.34416016 17.9540625 4.62582031 18.703125 4.91601562 C20.47191255 5.60258448 22.23643041 6.30013682 24 7 C24 7.33 24 7.66 24 8 C22.02 8 20.04 8 18 8 C18 7.34 18 6.68 18 6 C16.783125 5.855625 15.56625 5.71125 14.3125 5.5625 C11.17329623 5.17219047 8.0924866 4.67648144 5 4 C5 3.34 5 2.68 5 2 C3.35 2 1.7 2 0 2 C0 1.34 0 0.68 0 0 Z " fill="#6097D9" transform="translate(318,11)"/>
<path d="M0 0 C-1.57013777 5.96652354 -4.75029782 10.82909025 -8 16 C-8.95592551 12.58184212 -9.03445005 10.44816683 -8 7 C-3.47058824 0 -3.47058824 0 0 0 Z " fill="#4782D7" transform="translate(473,362)"/>
<path d="M0 0 C1.00051772 2.63940258 1.07069298 3.79276303 0.14453125 6.5078125 C-0.29503906 7.37148437 -0.73460937 8.23515625 -1.1875 9.125 C-1.61417969 9.99382812 -2.04085937 10.86265625 -2.48046875 11.7578125 C-4.12574263 14.1855431 -5.29588661 14.9693101 -8 16 C-8 16.99 -8 17.98 -8 19 C-8.66 19 -9.32 19 -10 19 C-8.40376856 14.60616294 -6.21975667 10.71004193 -3.875 6.6875 C-3.50246094 6.04232422 -3.12992188 5.39714844 -2.74609375 4.73242188 C-1.83367787 3.15324055 -0.91724491 1.57638136 0 0 Z " fill="#568DD6" transform="translate(38,118)"/>
<path d="M0 0 C-4.76855151 3.88631364 -11.023197 6.94533604 -17.2734375 7.03125 C-19.1875 6.75 -19.1875 6.75 -22 6 C-22 5.67 -22 5.34 -22 5 C-20.02 5 -18.04 5 -16 5 C-16 4.34 -16 3.68 -16 3 C-14.02 3 -12.04 3 -10 3 C-10 2.34 -10 1.68 -10 1 C-6.59437148 0.22157062 -3.49234244 -0.09978121 0 0 Z " fill="#4C83D4" transform="translate(347,480)"/>
<path d="M0 0 C0.66 0 1.32 0 2 0 C0.50253294 3.88997191 -1.70422078 5.46948052 -5.125 7.75 C-6.49011719 8.67039062 -6.49011719 8.67039062 -7.8828125 9.609375 C-8.93082031 10.29773438 -8.93082031 10.29773438 -10 11 C-10.66 10.67 -11.32 10.34 -12 10 C-11.67 8.68 -11.34 7.36 -11 6 C-9.68 6 -8.36 6 -7 6 C-7 5.01 -7 4.02 -7 3 C-3.535 2.505 -3.535 2.505 0 2 C0 1.34 0 0.68 0 0 Z " fill="#4F8AD6" transform="translate(397,449)"/>
<path d="M0 0 C0.99 1.32 1.98 2.64 3 4 C2.236875 4.226875 1.47375 4.45375 0.6875 4.6875 C-2.5655691 6.27620816 -3.22570952 7.93531644 -5 11 C-5.99 11 -6.98 11 -8 11 C-8.33 11.66 -8.66 12.32 -9 13 C-9.99 12.67 -10.98 12.34 -12 12 C-8.04 8.04 -4.08 4.08 0 0 Z " fill="#578ED8" transform="translate(77,70)"/>
<path d="M0 0 C1.08751323 3.2625397 0.85191527 3.85863102 0 7 C-0.07818636 8.51395696 -0.10789909 10.03093507 -0.09765625 11.546875 C-0.09443359 12.39121094 -0.09121094 13.23554688 -0.08789062 14.10546875 C-0.07951172 14.97816406 -0.07113281 15.85085937 -0.0625 16.75 C-0.05573242 18.08224609 -0.05573242 18.08224609 -0.04882812 19.44140625 C-0.037074 21.62767329 -0.02064249 23.81380179 0 26 C-0.66 25.67 -1.32 25.34 -2 25 C-2.4140625 22.49609375 -2.4140625 22.49609375 -2.625 19.4375 C-2.69976562 18.42558594 -2.77453125 17.41367188 -2.8515625 16.37109375 C-2.90054688 15.58863281 -2.94953125 14.80617187 -3 14 C-3.33 14 -3.66 14 -4 14 C-4 11.36 -4 8.72 -4 6 C-3.34 6 -2.68 6 -2 6 C-2 4.68 -2 3.36 -2 2 C-1.34 2 -0.68 2 0 2 C0 1.34 0 0.68 0 0 Z " fill="#78AAE3" transform="translate(207,238)"/>
<path d="M0 0 C2.20910924 3.31366386 2.99090852 6.16545239 4 10 C4.27457031 10.92232422 4.27457031 10.92232422 4.5546875 11.86328125 C5.11085742 14.53192112 5.09492443 17.02634811 5.0625 19.75 C5.05347656 20.73484375 5.04445313 21.7196875 5.03515625 22.734375 C5.02355469 23.48203125 5.01195312 24.2296875 5 25 C4.67 25 4.34 25 4 25 C3.32315702 21.96050698 2.66038128 18.91810835 2 15.875 C1.80921875 15.0190625 1.6184375 14.163125 1.421875 13.28125 C0.45079667 8.77267206 -0.24359575 4.64354396 0 0 Z " fill="#6D9FDA" transform="translate(3,285)"/>
<path d="M0 0 C3.375 4.5 3.375 4.5 3.29296875 8.109375 C3.28330078 8.86347656 3.27363281 9.61757812 3.26367188 10.39453125 C3.23853516 11.17183594 3.21339844 11.94914063 3.1875 12.75 C3.17396484 13.54277344 3.16042969 14.33554688 3.14648438 15.15234375 C3.11125223 17.10185564 3.05744821 19.05101626 3 21 C2.34 21.33 1.68 21.66 1 22 C0.67 14.74 0.34 7.48 0 0 Z " fill="#1E65C4" transform="translate(294,240)"/>
<path d="M0 0 C0.66 0.99 1.32 1.98 2 3 C1.67 3.33 1.34 3.66 1 4 C1.020625 5.11375 1.04125 6.2275 1.0625 7.375 C1 11 1 11 -1 14 C-1.99 14.33 -2.98 14.66 -4 15 C-3.85831863 13.56208484 -3.71148957 12.1246763 -3.5625 10.6875 C-3.48128906 9.88699219 -3.40007813 9.08648437 -3.31640625 8.26171875 C-3 6 -3 6 -2 3 C-1.34 3 -0.68 3 0 3 C0 2.01 0 1.02 0 0 Z " fill="#3F7FD2" transform="translate(13,174)"/>
<path d="M0 0 C7.03128878 0.43384548 13.329015 1.74321997 20 4 C17 6 17 6 13.75 5.64453125 C11.89375 5.23267578 11.89375 5.23267578 10 4.8125 C8.7625 4.55082031 7.525 4.28914062 6.25 4.01953125 C3.1951373 3.06121494 1.90730547 2.48931413 0 0 Z " fill="#5F92D7" transform="translate(298,6)"/>
<path d="M0 0 C2.49552403 2.27597646 4.06622986 4.60721178 5.6875 7.5625 C6.12449219 8.34753906 6.56148438 9.13257813 7.01171875 9.94140625 C8 12 8 12 8 14 C6.35 13.67 4.7 13.34 3 13 C2.49242138 11.58603098 1.99425075 10.16868271 1.5 8.75 C1.08234375 7.56664062 1.08234375 7.56664062 0.65625 6.359375 C0 4 0 4 0 0 Z " fill="#578FDA" transform="translate(464,123)"/>
<path d="M0 0 C-4.51368168 3.81926912 -9.09749318 5.34720628 -15 5 C-14.67 4.01 -14.34 3.02 -14 2 C-9.24983365 -0.2012966 -5.11918146 -0.1765235 0 0 Z " fill="#3F81D2" transform="translate(196,8)"/>
<path d="M0 0 C0.33 0 0.66 0 1 0 C4.44419134 12.48519362 4.44419134 12.48519362 4 19 C2.45966879 16.08749601 1.30475483 13.20383359 0.3125 10.0625 C-0.09548828 8.81146484 -0.09548828 8.81146484 -0.51171875 7.53515625 C-1.05696918 4.704216 -0.73694984 2.7647984 0 0 Z " fill="#5C93DA" transform="translate(9,309)"/>
<path d="M0 0 C4.09621053 2.28905883 7.53415091 4.85655548 11 8 C11 8.66 11 9.32 11 10 C11.99 10.33 12.98 10.66 14 11 C13.34 11.66 12.68 12.32 12 13 C12 12.34 12 11.68 12 11 C11.34 11 10.68 11 10 11 C9.67 10.34 9.34 9.68 9 9 C7.7934375 8.8453125 7.7934375 8.8453125 6.5625 8.6875 C5.716875 8.460625 4.87125 8.23375 4 8 C2.8125 5.5 2.8125 5.5 2 3 C1.34 2.67 0.68 2.34 0 2 C0 1.34 0 0.68 0 0 Z " fill="#6C9BDB" transform="translate(407,57)"/>
<path d="M0 0 C0 0.99 0 1.98 0 3 C-0.99 3.495 -0.99 3.495 -2 4 C-1.01 4.66 -0.02 5.32 1 6 C1 6.66 1 7.32 1 8 C0.34 8 -0.32 8 -1 8 C-1 7.34 -1 6.68 -1 6 C-3.97 5.67 -6.94 5.34 -10 5 C-3.63636364 0 -3.63636364 0 0 0 Z " fill="#4381DA" transform="translate(148,23)"/>
<path d="M0 0 C0.99 0 1.98 0 3 0 C3 0.66 3 1.32 3 2 C3.99 2.33 4.98 2.66 6 3 C6 4.32 6 5.64 6 7 C6.99 7.33 7.98 7.66 9 8 C9 9.98 9 11.96 9 14 C6.69534766 11.03786426 4.72409552 7.97847243 2.8125 4.75 C2.28269531 3.85796875 1.75289063 2.9659375 1.20703125 2.046875 C0.60955078 1.03367188 0.60955078 1.03367188 0 0 Z " fill="#6697D9" transform="translate(283,223)"/>
<path d="M0 0 C0.66 0 1.32 0 2 0 C2.33 0.99 2.66 1.98 3 3 C1.72992786 3.9593419 0.45891081 4.91743294 -0.8125 5.875 C-1.87404297 6.67550781 -1.87404297 6.67550781 -2.95703125 7.4921875 C-4.60456297 8.70814781 -6.29624211 9.86416141 -8 11 C-8 9.35 -8 7.7 -8 6 C-5.35261084 4.5393715 -4.10551666 4 -1 4 C-0.67 2.68 -0.34 1.36 0 0 Z " fill="#5C92D7" transform="translate(225,212)"/>
<path d="M0 0 C1.32 0.33 2.64 0.66 4 1 C4 8.92 4 16.84 4 25 C3.67 25 3.34 25 3 25 C2.67 17.74 2.34 10.48 2 3 C1.34 2.67 0.68 2.34 0 2 C0 1.34 0 0.68 0 0 Z " fill="#437AC8" transform="translate(230,293)"/>
<path d="M0 0 C2 3 2 3 1.9375 4.9375 C0.62070412 7.83445093 -1.4894351 9.101768 -4 11 C-4.99 12.485 -4.99 12.485 -6 14 C-6.66 14 -7.32 14 -8 14 C-8 13.34 -8 12.68 -8 12 C-7.34 12 -6.68 12 -6 12 C-6 11.01 -6 10.02 -6 9 C-4.33333333 7.33333333 -2.66666667 5.66666667 -1 4 C-0.13880866 1.82653432 -0.13880866 1.82653432 0 0 Z " fill="#1664D2" transform="translate(36,125)"/>
<path d="M0 0 C2.24940295 -0.08119503 4.49964871 -0.13927819 6.75 -0.1875 C8.00296875 -0.22230469 9.2559375 -0.25710938 10.546875 -0.29296875 C14.14109357 0.01197061 15.44725126 0.54394629 18 3 C11.71739294 3.23268915 6.11980533 2.40454548 0 1 C0 0.67 0 0.34 0 0 Z " fill="#77A5E1" transform="translate(202,495)"/>
<path d="M0 0 C2.97 0 5.94 0 9 0 C6.21769572 1.85486952 4.15636393 2.72462112 1 3.6875 C-0.299375 4.09548828 -0.299375 4.09548828 -1.625 4.51171875 C-4 5 -4 5 -7 4 C-6.34 4 -5.68 4 -5 4 C-5 3.34 -5 2.68 -5 2 C-3.35 2 -1.7 2 0 2 C0 1.34 0 0.68 0 0 Z " fill="#73A2DC" transform="translate(320,487)"/>
<path d="M0 0 C1.98 0 3.96 0 6 0 C6 1.32 6 2.64 6 4 C6.99 4.33 7.98 4.66 9 5 C8.34 5.66 7.68 6.32 7 7 C5.82780457 6.21654285 4.66236332 5.42297164 3.5 4.625 C2.8503125 4.18414062 2.200625 3.74328125 1.53125 3.2890625 C1.0259375 2.86367188 0.520625 2.43828125 0 2 C0 1.34 0 0.68 0 0 Z " fill="#4784D5" transform="translate(94,444)"/>
<path d="M0 0 C0.66 0.33 1.32 0.66 2 1 C0.25 4 0.25 4 -2 7 C-3.32 7 -4.64 7 -6 7 C-6.66 6.34 -7.32 5.68 -8 5 C-6.71475739 4.13619741 -5.42157581 3.28419631 -4.125 2.4375 C-3.04605469 1.72400391 -3.04605469 1.72400391 -1.9453125 0.99609375 C-1.30335938 0.66738281 -0.66140625 0.33867187 0 0 Z " fill="#5489DA" transform="translate(276,288)"/>
<path d="M0 0 C1.79068573 2.6860286 2.66055791 4.6626589 3.625 7.6875 C3.88539063 8.49574219 4.14578125 9.30398437 4.4140625 10.13671875 C4.60742188 10.75160156 4.80078125 11.36648437 5 12 C4.34 11.67 3.68 11.34 3 11 C3 10.34 3 9.68 3 9 C2.34 9 1.68 9 1 9 C1 8.01 1 7.02 1 6 C0.34 6 -0.32 6 -1 6 C-1 6.66 -1 7.32 -1 8 C-1.66 8 -2.32 8 -3 8 C-2.5359375 7.13375 -2.5359375 7.13375 -2.0625 6.25 C-1.07416636 4.15705816 -0.4831387 2.25464725 0 0 Z " fill="#5B8FDC" transform="translate(479,152)"/>
<path d="M0 0 C3.34905453 3.34905453 3.89470285 5.49378854 5 10 C2.525 9.01 2.525 9.01 0 8 C-0.33 8.66 -0.66 9.32 -1 10 C-0.67 6.7 -0.34 3.4 0 0 Z " fill="#588CDA" transform="translate(474,142)"/>
<path d="M0 0 C-1.6188996 1.03048037 -3.24532489 2.04914678 -4.875 3.0625 C-5.77992188 3.63097656 -6.68484375 4.19945312 -7.6171875 4.78515625 C-8.40351563 5.18605469 -9.18984375 5.58695312 -10 6 C-10.66 5.67 -11.32 5.34 -12 5 C-12 4.34 -12 3.68 -12 3 C-10.68 3 -9.36 3 -8 3 C-8.33 2.01 -8.66 1.02 -9 0 C-5.5657338 -0.85856655 -3.38317487 -0.97591583 0 0 Z " fill="#6599DB" transform="translate(377,466)"/>
<path d="M0 0 C0.99 0.495 0.99 0.495 2 1 C2 1.66 2 2.32 2 3 C2.99 3.33 3.98 3.66 5 4 C6.6875 6.5625 6.6875 6.5625 8 9 C6.02 9.33 4.04 9.66 2 10 C2.66 8.68 3.32 7.36 4 6 C2.68 5.34 1.36 4.68 0 4 C0 2.68 0 1.36 0 0 Z " fill="#4F88D7" transform="translate(431,79)"/>
<path d="M0 0 C2.97 0 5.94 0 9 0 C9 0.99 9 1.98 9 3 C10.32 3.33 11.64 3.66 13 4 C9.29218328 5.23593891 8.32489747 4.5678132 4.8125 3.0625 C3.91144531 2.68222656 3.01039063 2.30195313 2.08203125 1.91015625 C1.39496094 1.60980469 0.70789063 1.30945313 0 1 C0 0.67 0 0.34 0 0 Z " fill="#6E9FDD" transform="translate(155,481)"/>
<path d="M0 0 C0.33 0.66 0.66 1.32 1 2 C0.00390625 4.6015625 0.00390625 4.6015625 -1.4375 7.625 C-1.91058594 8.62789063 -2.38367188 9.63078125 -2.87109375 10.6640625 C-3.24363281 11.43492187 -3.61617188 12.20578125 -4 13 C-4.33 13 -4.66 13 -5 13 C-5 11.35 -5 9.7 -5 8 C-4.34 8 -3.68 8 -3 8 C-2.87625 6.865625 -2.7525 5.73125 -2.625 4.5625 C-2.41875 3.386875 -2.2125 2.21125 -2 1 C-1.34 0.67 -0.68 0.34 0 0 Z " fill="#74A4DD" transform="translate(478,349)"/>
<path d="M0 0 C0.33 0 0.66 0 1 0 C1 3.96 1 7.92 1 12 C0.01 12.33 -0.98 12.66 -2 13 C-1.85851011 11.3954444 -1.71164314 9.79136233 -1.5625 8.1875 C-1.48128906 7.29417969 -1.40007813 6.40085938 -1.31640625 5.48046875 C-1 3 -1 3 0 0 Z " fill="#6495DA" transform="translate(8,187)"/>
<path d="M0 0 C0.66 0.33 1.32 0.66 2 1 C0.4375 3.4375 0.4375 3.4375 -2 6 C-5.75 6.8125 -5.75 6.8125 -9 7 C-6.25604436 4.05278838 -3.61662784 1.80831392 0 0 Z " fill="#558DDA" transform="translate(123,35)"/>
<path d="M0 0 C-1.65 0.33 -3.3 0.66 -5 1 C-5 1.66 -5 2.32 -5 3 C-7.97 3 -10.94 3 -14 3 C-9.7368213 0.15788087 -5.03577274 -2.0143091 0 0 Z " fill="#6D9DDA" transform="translate(182,12)"/>
<path d="M0 0 C2.97 0.495 2.97 0.495 6 1 C5.19152271 2.16945792 4.37810888 3.33550461 3.5625 4.5 C3.11003906 5.1496875 2.65757812 5.799375 2.19140625 6.46875 C1.79824219 6.9740625 1.40507812 7.479375 1 8 C0.67 8 0.34 8 0 8 C0 5.36 0 2.72 0 0 Z " fill="#518CDB" transform="translate(434,411)"/>
<path d="M0 0 C-1.61992165 0.86375896 -3.24611861 1.71575854 -4.875 2.5625 C-6.23238281 3.27599609 -6.23238281 3.27599609 -7.6171875 4.00390625 C-8.40351563 4.33261719 -9.18984375 4.66132813 -10 5 C-10.66 4.67 -11.32 4.34 -12 4 C-8.51556551 -0.03460835 -5.13031263 -1.52493369 0 0 Z " fill="#749FDB" transform="translate(360,475)"/>
<path d="M0 0 C-0.33 1.98 -0.66 3.96 -1 6 C-3.88437779 4.70700306 -5.87219421 3.34058637 -8 1 C-2.25 -1.125 -2.25 -1.125 0 0 Z " fill="#4D89DD" transform="translate(110,450)"/>
<path d="M0 0 C1.134375 0.020625 2.26875 0.04125 3.4375 0.0625 C-1.3125 4.9375 -1.3125 4.9375 -3.5625 6.0625 C-3.94468767 4.40635343 -4.27645102 2.73792976 -4.5625 1.0625 C-3.5625 0.0625 -3.5625 0.0625 0 0 Z " fill="#538FD9" transform="translate(414.5625,434.9375)"/>
<path d="M0 0 C4.41889613 1.35021826 6.34345343 3.26115668 9 7 C8.34 7.66 7.68 8.32 7 9 C5.83037314 7.69013727 4.66437056 6.3770374 3.5 5.0625 C2.8503125 4.33160156 2.200625 3.60070312 1.53125 2.84765625 C0 1 0 1 0 0 Z " fill="#5D91D7" transform="translate(55,406)"/>
<path d="M0 0 C1 2 1 2 0.0625 5.125 C-0.288125 6.07375 -0.63875 7.0225 -1 8 C-2.65 8.33 -4.3 8.66 -6 9 C-4.47291037 5.56404834 -2.40072955 2.88087546 0 0 Z " fill="#5F96DD" transform="translate(64,83)"/>
<path d="M0 0 C4.12751449 0.60698743 7.3321148 2.03810791 11 4 C11 4.33 11 4.66 11 5 C9.02 5 7.04 5 5 5 C5 4.34 5 3.68 5 3 C3.35 2.67 1.7 2.34 0 2 C0 1.34 0 0.68 0 0 Z " fill="#5A90D6" transform="translate(349,22)"/>
<path d="M0 0 C2.5 2.25 2.5 2.25 5 5 C5 6.32 5 7.64 5 9 C2.5 7.3125 2.5 7.3125 0 5 C-0.3125 2.25 -0.3125 2.25 0 0 Z " fill="#568FD8" transform="translate(449,101)"/>
<path d="M0 0 C-3.20336822 2.83374881 -5.78087253 3.5205537 -10 4 C-10 3.01 -10 2.02 -10 1 C-6.59437148 0.22157062 -3.49234244 -0.09978121 0 0 Z " fill="#6298D9" transform="translate(347,480)"/>
<path d="M0 0 C0.66 0.33 1.32 0.66 2 1 C2 2.65 2 4.3 2 6 C2.99 6.33 3.98 6.66 5 7 C4.34 7.66 3.68 8.32 3 9 C1.35 7.02 -0.3 5.04 -2 3 C-1.34 2.01 -0.68 1.02 0 0 Z " fill="#4C88D9" transform="translate(70,418)"/>
<path d="M0 0 C0.66 0 1.32 0 2 0 C2.33 0.99 2.66 1.98 3 3 C3.66 3.66 4.32 4.32 5 5 C5.625 7.125 5.625 7.125 6 9 C5.01 9 4.02 9 3 9 C0 3.375 0 3.375 0 0 Z " fill="#6797D4" transform="translate(26,359)"/>
<path d="M0 0 C0.66 0 1.32 0 2 0 C2 2.64 2 5.28 2 8 C1.01 8 0.02 8 -1 8 C-1.04241723 5.66705225 -1.04092937 3.33297433 -1 1 C-0.67 0.67 -0.34 0.34 0 0 Z " fill="#1A62D5" transform="translate(268,294)"/>
<path d="M0 0 C2.046875 3.71875 2.046875 3.71875 1.625 6.25 C1.41875 6.8275 1.2125 7.405 1 8 C0.34 8 -0.32 8 -1 8 C-1.33 9.32 -1.66 10.64 -2 12 C-3.15957207 8.52128379 -2.77456651 7.65780355 -1.5625 4.3125 C-1.13130859 3.10013672 -1.13130859 3.10013672 -0.69140625 1.86328125 C-0.46324219 1.24839844 -0.23507813 0.63351563 0 0 Z " fill="#598FD5" transform="translate(17,159)"/>
<path d="M0 0 C2.5 2.3125 2.5 2.3125 5 5 C5 5.99 5 6.98 5 8 C3.68 7.67 2.36 7.34 1 7 C0.67 4.69 0.34 2.38 0 0 Z " fill="#5589D5" transform="translate(443,93)"/>
<path d="M0 0 C0 0.66 0 1.32 0 2 C0.928125 2.1546875 0.928125 2.1546875 1.875 2.3125 C4 3 4 3 6 6 C2.08788267 4.84414715 -0.8745041 3.64465038 -4 1 C-2 0 -2 0 0 0 Z " fill="#669ADA" transform="translate(132,467)"/>
<path d="M0 0 C0 0.66 0 1.32 0 2 C-2 4 -2 4 -4 5 C-4.99 4.67 -5.98 4.34 -7 4 C-7 3.01 -7 2.02 -7 1 C-2.25 0 -2.25 0 0 0 Z " fill="#4080D7" transform="translate(157,476)"/>
<path d="M0 0 C0.33 0.66 0.66 1.32 1 2 C-0.30406884 4.01920337 -1.63823419 6.01924973 -3 8 C-3.33 8 -3.66 8 -4 8 C-3.67 5.69 -3.34 3.38 -3 1 C-2.01 0.67 -1.02 0.34 0 0 Z " fill="#5C93D8" transform="translate(463,378)"/>
<path d="M0 0 C0.28875 0.639375 0.5775 1.27875 0.875 1.9375 C1.82823451 4.15206079 1.82823451 4.15206079 4 5 C3.67 6.65 3.34 8.3 3 10 C0.51280729 7.08025204 -0.58572305 4.83206182 -1 1 C-0.67 0.67 -0.34 0.34 0 0 Z " fill="#588FDA" transform="translate(20,343)"/>
<path d="M0 0 C2.125 0.375 2.125 0.375 4 1 C4 1.66 4 2.32 4 3 C5.32 3.33 6.64 3.66 8 4 C6 5 6 5 4.0546875 4.44140625 C3.33539063 4.15136719 2.61609375 3.86132812 1.875 3.5625 C1.15054687 3.27503906 0.42609375 2.98757812 -0.3203125 2.69140625 C-1.15175781 2.34916016 -1.15175781 2.34916016 -2 2 C-1.34 1.34 -0.68 0.68 0 0 Z " fill="#5B95D8" transform="translate(260,207)"/>
<path d="M0 0 C0.8125 1.6875 0.8125 1.6875 1 4 C-1.4375 6.75 -1.4375 6.75 -4 9 C-4 5.00095031 -2.27413033 3.19799578 0 0 Z " fill="#6396D9" transform="translate(44,109)"/>
<path d="M0 0 C0.66 0.33 1.32 0.66 2 1 C0.8125 3.4375 0.8125 3.4375 -1 6 C-3.6875 6.8125 -3.6875 6.8125 -6 7 C-4.02 4.69 -2.04 2.38 0 0 Z " fill="#1E62C9" transform="translate(86,63)"/>
<path d="M0 0 C0.99 0.33 1.98 0.66 3 1 C1.95125002 3.62187494 1.35068687 4.79371361 -1.125 6.25 C-1.74375 6.4975 -2.3625 6.745 -3 7 C-3.33 6.01 -3.66 5.02 -4 4 C-2.68 4 -1.36 4 0 4 C0 2.68 0 1.36 0 0 Z " fill="#4F87D7" transform="translate(405,441)"/>
<path d="M0 0 C1.65 0 3.3 0 5 0 C3.35 1.98 1.7 3.96 0 6 C-1.125 2.25 -1.125 2.25 0 0 Z " fill="#5D92D8" transform="translate(429,419)"/>
<path d="M0 0 C0.33 1.32 0.66 2.64 1 4 C0.34 4 -0.32 4 -1 4 C-1.33 4.99 -1.66 5.98 -2 7 C-2.99 7.33 -3.98 7.66 -5 8 C-3.8141763 4.62496331 -2.72426311 2.35277269 0 0 Z " fill="#6A96DA" transform="translate(50,101)"/>
<path d="M0 0 C3.53372712 1.96318174 6.24479785 4.04070881 9 7 C6.625 6.75 6.625 6.75 4 6 C2.6875 3.9375 2.6875 3.9375 2 2 C1.34 2 0.68 2 0 2 C0 1.34 0 0.68 0 0 Z " fill="#6497DB" transform="translate(398,50)"/>
<path d="M0 0 C1.60080151 4.00200378 0.29279692 7.04556236 -1 11 C-1.33 11 -1.66 11 -2 11 C-2.25 3.375 -2.25 3.375 0 0 Z " fill="#6A97DA" transform="translate(492,306)"/>
<path d="M0 0 C3.96 1.98 3.96 1.98 8 4 C7.01 4.66 6.02 5.32 5 6 C5 5.34 5 4.68 5 4 C2.03 3.505 2.03 3.505 -1 3 C-0.67 2.01 -0.34 1.02 0 0 Z " fill="#5690D8" transform="translate(222,288)"/>
<path d="M0 0 C0 0.66 0 1.32 0 2 C-0.99 2.33 -1.98 2.66 -3 3 C-3.99 4.485 -3.99 4.485 -5 6 C-6.32 5.67 -7.64 5.34 -9 5 C-7.87926138 4.16094435 -6.75325453 3.32892169 -5.625 2.5 C-4.99851562 2.0359375 -4.37203125 1.571875 -3.7265625 1.09375 C-2 0 -2 0 0 0 Z " fill="#6799DB" transform="translate(114,42)"/>
<path d="M0 0 C3.77545388 1.09068668 6.47043472 1.9083091 9 5 C8.01 5.33 7.02 5.66 6 6 C5.67 5.01 5.34 4.02 5 3 C3.35 2.67 1.7 2.34 0 2 C0 1.34 0 0.68 0 0 Z " fill="#639BDC" transform="translate(366,30)"/>
<path d="M0 0 C-0.60183749 2.02045442 -1.27306096 4.02111039 -2 6 C-2.99 6.495 -2.99 6.495 -4 7 C-4 5.02 -4 3.04 -4 1 C-2 0 -2 0 0 0 Z " fill="#6096DA" transform="translate(473,362)"/>
<path d="M0 0 C1.31223496 3.93670488 0.24296256 6.12488144 -1 10 C-1.33 10 -1.66 10 -2 10 C-2 7.03 -2 4.06 -2 1 C-1.34 0.67 -0.68 0.34 0 0 Z " fill="#69A0DF" transform="translate(489,318)"/>
<path d="M0 0 C0.33 1.32 0.66 2.64 1 4 C0.34 4 -0.32 4 -1 4 C-1 5.32 -1 6.64 -1 8 C-2.32 7.67 -3.64 7.34 -5 7 C-3.35 4.69 -1.7 2.38 0 0 Z " fill="#5F93D8" transform="translate(288,275)"/>
</svg>
