<?xml version="1.0" encoding="UTF-8"?>
<svg version="1.1" xmlns="http://www.w3.org/2000/svg" width="1600" height="1600">
<path d="M0 0 C528 0 1056 0 1600 0 C1600 528 1600 1056 1600 1600 C1072 1600 544 1600 0 1600 C0 1072 0 544 0 0 Z " fill="#1166DC" transform="translate(0,0)"/>
<path d="M0 0 C528 0 1056 0 1600 0 C1600 528 1600 1056 1600 1600 C1072 1600 544 1600 0 1600 C0 1072 0 544 0 0 Z M738.70974731 6.76147461 C736.36256899 6.96808488 734.01549715 7.15733935 731.66577148 7.33203125 C696.85565404 9.93970509 662.01832194 15.19797182 628 23 C626.62773344 23.30916809 625.25533159 23.61773616 623.8828125 23.92578125 C575.52791451 34.80160654 528.55798002 50.49028696 483 70 C482.00419922 70.42313477 481.00839844 70.84626953 479.98242188 71.28222656 C468.60620402 76.11950295 457.34809915 81.08078366 446.37304688 86.77441406 C443.54236132 88.23635249 440.7006232 89.67588724 437.859375 91.1171875 C422.58750378 98.90395231 407.7032615 107.19048515 393 116 C391.4844661 116.8972893 389.96884741 117.79443541 388.453125 118.69140625 C354.26779306 139.0938339 321.33983738 162.51737894 291.08203125 188.38671875 C288.26364971 190.79081313 285.38828047 193.11767994 282.5 195.4375 C277.12496587 199.80814819 272.07176298 204.48118387 267.01171875 209.20703125 C264.59346824 211.4623045 262.13145939 213.65510265 259.625 215.8125 C256.52007198 218.49520978 253.6399759 221.33948399 250.765625 224.265625 C248.98775916 226.01202419 247.14514605 227.63219239 245.25 229.25 C237.91704845 235.58623969 231.15851747 242.53520066 224.875 249.90625 C222.51653506 252.53986918 220.01534106 255.01804469 217.5 257.5 C213.79722034 261.15861008 210.24915251 264.88633554 206.87109375 268.84765625 C204.95886295 271.04732049 202.98821731 273.18646031 201.00439453 275.3215332 C196.53947466 280.13194382 192.26857594 285.01342662 188.21875 290.18359375 C185.95081183 293.0624378 183.63994745 295.90199464 181.31982422 298.73876953 C167.04082311 316.21007974 153.67145276 334.32957764 141 353 C140.55865723 353.64839844 140.11731445 354.29679687 139.66259766 354.96484375 C127.40342896 373.01948506 116.06032036 391.56848759 105.359375 410.58544922 C104.08863073 412.84257222 102.81122222 415.09575707 101.53125 417.34765625 C99.33368102 421.22048957 97.15855911 425.10529837 95 429 C94.67612305 429.58313965 94.35224609 430.1662793 94.01855469 430.76708984 C84.6573538 447.71114798 76.56018015 465.30036495 69.0703125 483.140625 C67.62944937 486.56680885 66.11161181 489.94716905 64.55078125 493.3203125 C61.80340005 499.32876151 59.41139492 505.45168126 57.0625 511.625 C56.62502441 512.7701709 56.18754883 513.9153418 55.73681641 515.09521484 C52.34370014 524.0158067 49.07363725 532.96478313 46 542 C45.69884277 542.87769043 45.39768555 543.75538086 45.08740234 544.65966797 C29.29680182 590.77513137 18.1381149 637.814286 11 686 C10.77618652 687.47509033 10.77618652 687.47509033 10.54785156 688.97998047 C7.82338922 707.13772066 6.50971383 725.43649105 5.1685791 743.73760986 C5.01009615 745.86450615 4.84421877 747.99064905 4.67480469 750.11669922 C-1.13751212 824.00692993 4.06691792 900.39379903 21.41259766 972.51464844 C22.15672408 975.66311353 22.80083435 978.82824749 23.4375 982 C29.16834184 1008.78835373 37.5726788 1034.84374744 46.1875 1060.8125 C46.4396225 1061.57440643 46.691745 1062.33631287 46.95150757 1063.12130737 C50.06525211 1072.51256406 53.33296127 1081.80695257 57 1091 C57.43078857 1092.08015381 57.86157715 1093.16030762 58.30541992 1094.27319336 C69.21157425 1121.36610701 81.28119349 1147.94167078 95.15283203 1173.65527344 C97.08941284 1177.25218611 98.92221397 1180.87911214 100.6875 1184.5625 C105.54413561 1194.35452746 111.35471848 1203.64965373 117 1213 C117.5357666 1213.88961426 118.0715332 1214.77922852 118.62353516 1215.69580078 C126.9425549 1229.4633552 135.82306434 1242.79169525 145 1256 C145.79470703 1257.15242188 145.79470703 1257.15242188 146.60546875 1258.328125 C154.33773938 1269.53892355 162.5421945 1280.32789592 171 1291 C171.77472656 1291.9796875 172.54945313 1292.959375 173.34765625 1293.96875 C175.22049739 1296.32190228 177.10563496 1298.66415159 179 1301 C179.6909375 1301.85335938 180.381875 1302.70671875 181.09375 1303.5859375 C189.15751626 1313.49528407 197.35215907 1323.27828413 205.94921875 1332.73046875 C207.85228088 1334.83652418 209.71153821 1336.97320469 211.5625 1339.125 C214.49511889 1342.49785036 217.59779046 1345.64614251 220.8125 1348.75 C222.65787851 1350.64810361 224.37513944 1352.58239935 226.09765625 1354.58984375 C230.63982913 1359.81703391 235.53239197 1364.67830927 240.4375 1369.5625 C241.34048828 1370.46935547 242.24347656 1371.37621094 243.17382812 1372.31054688 C247.70074078 1376.83090354 252.27918408 1381.21415074 257.13452148 1385.37963867 C260.28377062 1388.11508776 263.2853591 1391.00608046 266.3125 1393.875 C271.45369721 1398.70980198 276.6862451 1403.32739993 282.203125 1407.734375 C285.46831834 1410.37936402 288.63749075 1413.12315082 291.8125 1415.875 C303.92699278 1426.31341862 316.69257344 1435.83577384 329.609375 1445.25341797 C331.88061335 1446.91277654 334.14408845 1448.58220549 336.40625 1450.25390625 C353.94235536 1463.1474047 372.29333583 1474.88275375 391 1486 C392.10359863 1486.65597168 392.10359863 1486.65597168 393.22949219 1487.32519531 C411.16196937 1497.93608276 429.46371333 1507.94135028 448.18164062 1517.09814453 C449.98088832 1517.99052114 451.76406675 1518.91506106 453.546875 1519.83984375 C470.88114948 1528.8260096 489.08975473 1536.08865737 507.1875 1543.375 C508.12843506 1543.7551123 509.06937012 1544.13522461 510.03881836 1544.52685547 C518.60380688 1547.9374091 527.29093793 1550.98194269 536 1554 C536.70520782 1554.24478088 537.41041565 1554.48956177 538.13699341 1554.74176025 C543.1457822 1556.47687773 548.1630123 1558.1858973 553.1875 1559.875 C553.95237732 1560.13223846 554.71725464 1560.38947693 555.50531006 1560.6545105 C569.85034646 1565.45701467 584.3068345 1569.48029717 598.96606445 1573.20117188 C602.63114127 1574.16617802 606.24850555 1575.25909152 609.87207031 1576.36791992 C614.41661594 1577.71783142 619.06578185 1578.59368233 623.70849609 1579.53466797 C625.36831104 1579.87172393 627.02740164 1580.21235333 628.68603516 1580.55517578 C649.32105146 1584.81986055 670.02396025 1588.40911982 690.8984375 1591.28125 C694.22385322 1591.74062432 697.53844812 1592.24044264 700.8515625 1592.78125 C717.02853257 1595.32880434 732.37190783 1595.96074424 749 1597 C749 1381.51 749 1166.02 749 944 C739.595 939.545 739.595 939.545 730 935 C704.2466627 919.81908538 684.85767319 899.34864925 671 873 C670.54109375 872.14792969 670.0821875 871.29585937 669.609375 870.41796875 C665.0004663 861.15639588 662.53899253 850.98251042 660 841 C659.72446289 839.94498291 659.72446289 839.94498291 659.44335938 838.86865234 C650.95213044 805.081342 658.64424426 769.03170886 675 739 C675.5775 737.91847656 676.155 736.83695313 676.75 735.72265625 C680.77869743 728.47659629 685.54925313 722.23067689 691 716 C691.82242188 715.03191406 692.64484375 714.06382812 693.4921875 713.06640625 C704.44117074 700.5741687 717.39324123 690.8446308 732 683 C732.70576172 682.61714844 733.41152344 682.23429688 734.13867188 681.83984375 C750.82657614 672.945499 769.586538 666.98959672 788.59765625 666.7265625 C789.8321199 666.70777039 789.8321199 666.70777039 791.09152222 666.68859863 C808.33205769 666.47682685 824.51065548 666.36297128 841 672 C842.45084027 672.44204021 843.90266604 672.88085907 845.35546875 673.31640625 C863.04556807 678.84732574 878.80221733 688.19633835 893 700 C893.57975586 700.48194824 894.15951172 700.96389648 894.75683594 701.46044922 C921.51546178 724.10177361 939.99582648 758.98093591 943 794 C943.96500076 811.37001374 943.40545152 828.13308235 939 845 C938.68804688 846.20269531 938.37609375 847.40539062 938.0546875 848.64453125 C937.14297124 851.81255372 936.11511682 854.89809055 935 858 C934.59265625 859.16273438 934.1853125 860.32546875 933.765625 861.5234375 C927.81706417 877.46424376 914.82644011 905.08677994 899 913 C899 913.66 899 914.32 899 915 C898.40445313 915.27457031 897.80890625 915.54914062 897.1953125 915.83203125 C895.09377739 916.95010776 893.62027923 918.08692985 891.875 919.6875 C885.15175662 925.54733739 877.80129147 930.23434563 870.0625 934.625 C869.11515991 935.1650769 869.11515991 935.1650769 868.14868164 935.71606445 C862.536826 938.84245633 856.90738651 941.31482431 851 944 C851 1159.49 851 1374.98 851 1597 C875.97469447 1595.5017751 875.97469447 1595.5017751 900.75 1592.75 C902.34903836 1592.53091456 903.94807811 1592.31183936 905.54711914 1592.09277344 C910.3690646 1591.42368115 915.18549901 1590.72058378 920 1590 C920.74505798 1589.88849609 921.49011597 1589.77699219 922.25775146 1589.66210938 C955.27762297 1584.67756534 987.9167879 1577.25136 1020 1568 C1021.8886377 1567.45738525 1021.8886377 1567.45738525 1023.81542969 1566.90380859 C1043.88169234 1561.10905722 1063.49802207 1554.48878029 1083 1547 C1083.92900116 1546.64394684 1083.92900116 1546.64394684 1084.87677002 1546.28070068 C1109.29953647 1536.91476108 1133.09824954 1526.55937026 1156.5 1514.875 C1157.46063354 1514.39593704 1157.46063354 1514.39593704 1158.44067383 1513.90719604 C1170.05871296 1508.09907393 1181.40765693 1501.8866559 1192.64208984 1495.36474609 C1194.71877746 1494.16277014 1196.80285935 1492.9764166 1198.89453125 1491.80078125 C1224.27268856 1477.50200233 1248.61076514 1461.35089853 1272 1444 C1272.5563916 1443.58991699 1273.1127832 1443.17983398 1273.68603516 1442.75732422 C1285.42111896 1434.10527816 1296.83256476 1425.08904443 1307.9140625 1415.6171875 C1310.75605565 1413.19308244 1313.65290065 1410.84268601 1316.5625 1408.5 C1321.55168418 1404.44174232 1326.27670615 1400.15484434 1330.98046875 1395.7734375 C1333.25051293 1393.66768295 1335.56632786 1391.62213236 1337.90234375 1389.58984375 C1348.15891776 1380.64914805 1357.92743143 1371.16466055 1367.5625 1361.5625 C1368.29968262 1360.82990967 1369.03686523 1360.09731934 1369.79638672 1359.3425293 C1373.85956295 1355.26779156 1377.73124754 1351.08857232 1381.48803711 1346.73022461 C1383.24001827 1344.72533353 1385.08490963 1342.84905277 1387 1341 C1390.88025687 1337.16417355 1394.455071 1333.14484006 1398 1329 C1398.90572194 1327.95787415 1399.81201803 1326.91624715 1400.71875 1325.875 C1406.2458622 1319.50599778 1411.61465356 1313.04868783 1416.78637695 1306.38769531 C1419.7351198 1302.59337641 1422.73932529 1298.85198966 1425.78735352 1295.13696289 C1437.00151165 1281.4639525 1447.35627293 1267.30469555 1457.22558594 1252.63378906 C1459.09279357 1249.86226513 1460.97221595 1247.09924177 1462.8515625 1244.3359375 C1477.1264759 1223.24799725 1490.06462845 1201.48955807 1502 1179 C1502.48533203 1178.0910498 1502.97066406 1177.18209961 1503.47070312 1176.24560547 C1513.8642694 1156.74911011 1523.79259998 1136.9453422 1532.45703125 1116.61328125 C1533.53924404 1114.07898547 1534.63677822 1111.55800998 1535.76171875 1109.04296875 C1536.21345459 1108.02819458 1536.21345459 1108.02819458 1536.67431641 1106.99291992 C1537.49068826 1105.16113228 1538.30967169 1103.33050913 1539.12890625 1101.5 C1544.52662982 1088.83812221 1548.83223001 1075.75346456 1553.125 1062.6875 C1554.14633341 1059.58654152 1555.16996375 1056.48635173 1556.1953125 1053.38671875 C1556.44012863 1052.64473236 1556.68494476 1051.90274597 1556.93717957 1051.13827515 C1558.25648887 1047.16090983 1559.64117519 1043.22200691 1561.12109375 1039.30078125 C1563.51166796 1032.82569458 1565.20374675 1026.17518391 1566.9375 1019.5 C1567.28905603 1018.15931537 1567.64103016 1016.8187403 1567.9934082 1015.47827148 C1568.68604435 1012.84141244 1569.37606715 1010.20388943 1570.06445312 1007.56591797 C1570.84706312 1004.58293218 1571.6432177 1001.60456136 1572.453125 998.62890625 C1580.46608629 969.11444745 1586.11377982 938.72341795 1590.3125 908.4375 C1590.45953369 907.37772949 1590.60656738 906.31795898 1590.75805664 905.22607422 C1596.18598716 864.0677045 1597.85408933 822.47127076 1597 781 C1596.98173157 780.06583252 1596.96346313 779.13166504 1596.94464111 778.16918945 C1596.17976474 740.82761624 1592.1381172 703.83126395 1586 667 C1585.88631073 666.3056485 1585.77262146 665.611297 1585.65548706 664.89590454 C1583.75404808 653.33763855 1581.3299849 641.91037664 1578.77587891 630.48022461 C1578.1268626 627.57084958 1577.48693356 624.65957537 1576.84765625 621.74804688 C1574.25805009 610.04952424 1571.31113811 598.51362949 1568 587 C1567.52533473 585.27043655 1567.05330359 583.54014386 1566.5859375 581.80859375 C1560.59706251 560.02177396 1553.50497464 538.29836785 1544.96582031 517.375 C1543.79457503 514.49484983 1542.64320629 511.60704211 1541.4921875 508.71875 C1539.38250519 503.42669159 1537.26619236 498.13736136 1535.14208984 492.85107422 C1534.39858792 490.99502131 1533.65911668 489.13734704 1532.92431641 487.27783203 C1528.00723286 474.85238774 1522.02981971 462.93263139 1516.01171875 451.01171875 C1515.0109452 449.02176362 1514.01950572 447.02744781 1513.03125 445.03125 C1497.28640188 413.2477335 1479.65621562 381.86977006 1459 353 C1457.96779188 351.50937508 1456.93805382 350.01703813 1455.91015625 348.5234375 C1447.30888624 336.05732852 1438.27423562 323.97183176 1429 312 C1428.47776855 311.32179199 1427.95553711 310.64358398 1427.41748047 309.94482422 C1421.91953011 302.80580498 1416.24847635 295.85683202 1410.34545898 289.04833984 C1407.25745152 285.48568021 1404.2602158 281.8682999 1401.3125 278.1875 C1397.82197247 273.88272645 1394.0886738 269.98162423 1390.12109375 266.1171875 C1387.51550717 263.51639942 1385.14103733 260.75802276 1382.74609375 257.96484375 C1380.90384325 255.89179676 1378.97598338 253.94564198 1377 252 C1374.4207494 249.46027814 1371.97782611 246.87548686 1369.625 244.125 C1363.5621499 237.09540843 1356.91150348 230.67577553 1349.86328125 224.64453125 C1347.99548207 222.99601248 1346.24544376 221.27696419 1344.5 219.5 C1341.55399785 216.50765625 1338.47016993 213.74675828 1335.2890625 211.0078125 C1333.06448417 209.0565612 1330.88867933 207.05860706 1328.71972656 205.04589844 C1323.56751974 200.26803934 1318.30629455 195.70679476 1312.828125 191.30078125 C1310.32170018 189.26171465 1307.86383482 187.17595849 1305.41650391 185.06665039 C1298.20542303 178.86643793 1290.68429701 173.15785871 1283.03515625 167.51171875 C1281.04354754 166.03234721 1279.06651498 164.53563215 1277.09375 163.03125 C1266.96935991 155.32377258 1256.55528252 148.1029823 1246 141 C1244.63931728 140.07943542 1243.2786399 139.15886293 1241.91796875 138.23828125 C1235.08949689 133.63571273 1228.18695843 129.19171081 1221.1484375 124.9140625 C1219.10432239 123.67136225 1217.06735922 122.41679191 1215.0390625 121.1484375 C1204.86756914 114.79452263 1194.45442039 108.87341366 1184 103 C1183.10039551 102.49388184 1182.20079102 101.98776367 1181.27392578 101.46630859 C1167.44732684 93.71892484 1153.38911128 86.64046361 1139 80 C1137.81196777 79.45053711 1136.62393555 78.90107422 1135.39990234 78.33496094 C1121.5433487 71.94005266 1107.62292755 65.72433855 1093.5 59.9375 C1092.45811523 59.50888672 1091.41623047 59.08027344 1090.34277344 58.63867188 C1082.98893453 55.66898765 1075.52438735 53.11880123 1067.98919678 50.65603638 C1064.57892234 49.5313291 1061.18315293 48.36427819 1057.78515625 47.203125 C1013.14082586 32.01381695 967.77032304 20.40473932 921.06738281 13.59960938 C917.40109924 13.06446393 913.7436198 12.48191651 910.0859375 11.890625 C873.75078237 6.19592984 837.05224074 4.62181795 800.32923889 4.62483215 C797.97522444 4.62499735 795.62122447 4.62227756 793.26721191 4.61950684 C775.00450567 4.61189054 756.91395497 5.14347167 738.70974731 6.76147461 Z " fill="#F6F6F7" transform="translate(0,0)"/>
<path d="M0 0 C0.99 0.33 1.98 0.66 3 1 C3 216.49 3 431.98 3 654 C-33.84563758 651.69714765 -33.84563758 651.69714765 -50 649.375 C-51.68474687 649.14214881 -53.36964394 648.91038186 -55.0546875 648.6796875 C-59.03827157 648.13204967 -63.01964005 647.57057912 -67 647 C-67 646.67 -67 646.34 -67 646 C-60.66574697 646.31738794 -54.33267762 646.65266411 -48 647 C-46.93821533 647.05607422 -46.93821533 647.05607422 -45.85498047 647.11328125 C-34.45780175 647.7288828 -34.45780175 647.7288828 -30.0625 649.0625 C-24.90001235 650.6021893 -19.4260624 650.09339846 -14.09765625 649.97265625 C-11 650 -11 650 -10 651 C-6.37 651.33 -2.74 651.66 1 652 C0.67 436.84 0.34 221.68 0 0 Z " fill="#407BCD" transform="translate(746,943)"/>
<path d="M0 0 C0 0.99 0 1.98 0 3 C-2.31 3.66 -4.62 4.32 -7 5 C-7 219.5 -7 434 -7 655 C-3.37 655 0.26 655 4 655 C4 655.33 4 655.66 4 656 C-0.29 656.33 -4.58 656.66 -9 657 C-9 441.51 -9 226.02 -9 4 C-6.03 2.68 -3.06 1.36 0 0 Z " fill="#407ACE" transform="translate(860,940)"/>
<path d="M0 0 C4.83137707 0.59159719 9.38398308 1.43055425 14 3 C15.17532977 5.35065953 15.12512669 6.73068776 15.12534916 9.35111177 C15.12910444 10.73362236 15.12910444 10.73362236 15.13293558 12.14406246 C15.13059442 13.16536804 15.12825325 14.18667361 15.12584114 15.23892784 C15.12729458 16.32157628 15.12874802 17.40422471 15.13024551 18.51968068 C15.13392935 22.19065491 15.13040807 25.86158824 15.12698364 29.53256226 C15.12813453 32.17385913 15.12968058 34.81515308 15.13171089 37.45644915 C15.13533344 43.22161121 15.13520636 48.98676392 15.13266373 54.75192642 C15.12889284 63.32523086 15.130809 71.89852735 15.13387203 80.47183173 C15.13914848 95.78350701 15.13867697 111.09517813 15.13579312 126.40685382 C15.13328063 139.81234986 15.13261942 153.21784438 15.13381577 166.62334061 C15.13389215 167.51149626 15.13396854 168.39965192 15.13404724 169.31472138 C15.13435856 172.91986406 15.13467696 176.52500674 15.135007 180.13014942 C15.13806907 213.98189083 15.13528815 247.83362958 15.1299101 281.68537058 C15.12516826 311.76111436 15.12558534 341.83685391 15.13037109 371.91259766 C15.13572726 405.68610627 15.13784784 439.45961253 15.13475883 473.23312151 C15.13443811 476.83491492 15.13412527 480.43670833 15.13381577 484.03850174 C15.13373669 484.92538227 15.13365761 485.8122628 15.13357614 486.7260185 C15.13243889 500.11620877 15.13376861 513.50639734 15.13629532 526.89658737 C15.13915555 542.13039867 15.13843787 557.36420514 15.13301457 572.59801583 C15.1300798 581.12271711 15.1298844 589.64740795 15.13366075 598.17210895 C15.1359061 603.86968181 15.13450218 609.56724631 15.13015598 615.26481793 C15.12778174 618.50914079 15.12750703 621.75343887 15.13056196 624.99776177 C15.13360622 628.4994146 15.13047978 632.00101086 15.12584114 635.50266075 C15.12818231 636.50055467 15.13052347 637.49844858 15.13293558 638.5265817 C15.11477922 645.39243427 14.65946213 652.16680197 14 659 C13.67 659 13.34 659 13 659 C13 443.51 13 228.02 13 6 C10.03 5.01 7.06 4.02 4 3 C1.4375 1.3125 1.4375 1.3125 0 0 Z " fill="#E4F4FE" transform="translate(736,938)"/>
<path d="M0 0 C-2.64 0.99 -5.28 1.98 -8 3 C-8.33 218.49 -8.66 433.98 -9 656 C-9.33 656 -9.66 656 -10 656 C-10.33 439.85 -10.66 223.7 -11 1 C-4 -1 -4 -1 0 0 Z " fill="#D9EFFE" transform="translate(860,941)"/>
<path d="M0 0 C0.66 0 1.32 0 2 0 C2.66 4.95 3.32 9.9 4 15 C4.99 15.33 5.98 15.66 7 16 C7.66 14.68 8.32 13.36 9 12 C9.04644221 25.50030716 9.08192952 39.00059515 9.10362434 52.50096607 C9.11403936 58.77044825 9.12815683 65.03987556 9.15087891 71.30932617 C9.1726887 77.36530277 9.18458578 83.42122675 9.18975449 89.47723961 C9.19343566 91.78196731 9.20062391 94.0866923 9.21146011 96.39139748 C9.22608316 99.63184343 9.22797343 102.87207493 9.22705078 106.11254883 C9.23783661 107.52596809 9.23783661 107.52596809 9.24884033 108.96794128 C9.23133974 114.68794342 8.60564854 120.03177535 7.46961975 125.63941193 C6.89530276 128.52627055 6.59407257 131.39091893 6.3671875 134.32421875 C6.28339844 135.37158203 6.19960937 136.41894531 6.11328125 137.49804688 C6.03464844 138.55056641 5.95601562 139.60308594 5.875 140.6875 C5.78863281 141.78255859 5.70226563 142.87761719 5.61328125 144.00585938 C5.40385501 146.67022655 5.19950749 149.33487497 5 152 C4.67 152 4.34 152 4 152 C3.90032888 145.43278059 3.95924666 138.93543119 4.4921875 132.38671875 C5.18260689 122.38578179 5.1976692 112.39638402 5.1875 102.375 C5.18722809 101.3642038 5.18695618 100.35340759 5.18667603 99.3119812 C5.15135055 70.39398368 4.94515886 41.09112529 0.5859375 12.44921875 C-0.03793527 8.25661288 -0.10722061 4.23521399 0 0 Z " fill="#EAF4FA" transform="translate(1591,704)"/>
<path d="M0 0 C0.84386657 2.87527004 1.0690725 5.20853649 0.83813477 8.19042969 C0.77801712 9.01798264 0.71789948 9.84553558 0.65596008 10.69816589 C0.58515732 11.5969899 0.51435455 12.4958139 0.44140625 13.421875 C0.30014886 15.39454427 0.15989581 17.36728565 0.02050781 19.34008789 C-0.05470093 20.38407745 -0.12990967 21.42806702 -0.20739746 22.50369263 C-1.54435974 41.3656771 -2.29953128 60.15239185 -2.25 79.0625 C-2.248293 80.55239441 -2.248293 80.55239441 -2.24655151 82.0723877 C-2.22312815 92.55515891 -1.95548581 102.96322718 -1.21826172 113.41967773 C-0.8913112 118.78290975 -0.89076406 124.12896156 -0.9375 129.5 C-0.94201172 130.52480469 -0.94652344 131.54960938 -0.95117188 132.60546875 C-0.96269016 135.07038156 -0.97894124 137.5351536 -1 140 C-3.81316397 137.18683603 -3.2836565 135.33505875 -3.34375 131.39453125 C-3.35769302 130.72755219 -3.37163605 130.06057312 -3.38600159 129.37338257 C-3.41587599 127.93652671 -3.4417752 126.49958389 -3.46414185 125.06259155 C-3.52453522 121.27292033 -3.61632636 117.48416408 -3.71484375 113.6953125 C-3.73445663 112.94100449 -3.75406952 112.18669647 -3.77427673 111.40953064 C-3.95187784 105.30559072 -4.42949528 99.26114723 -5.0625 93.1875 C-5.92714253 84.53557245 -6.21754214 75.94471927 -6.25 67.25 C-6.259104 66.0952417 -6.26820801 64.9404834 -6.27758789 63.75073242 C-6.25556007 57.56361167 -5.71067832 51.867869 -4.4765625 45.81298828 C-3.57964168 40.51876612 -3.52567716 35.17095635 -3.375 29.8125 C-3.33632813 28.66974609 -3.29765625 27.52699219 -3.2578125 26.34960938 C-3.16465589 23.56655555 -3.07884151 20.78348978 -3 18 C-2.34 18 -1.68 18 -1 18 C-1.01160156 16.86820313 -1.02320313 15.73640625 -1.03515625 14.5703125 C-1.04453454 13.08854331 -1.0536347 11.60677235 -1.0625 10.125 C-1.07087891 9.37863281 -1.07925781 8.63226562 -1.08789062 7.86328125 C-1.11328125 2.2265625 -1.11328125 2.2265625 0 0 Z " fill="#D8EBFB" transform="translate(6,726)"/>
<path d="M0 0 C3.27237717 0.01091121 6.54471305 0.01046528 9.81710529 0.00986195 C13.0233626 0.01013598 16.22959394 0.01565136 19.43584251 0.02286339 C20.93982944 0.02599335 22.44381922 0.02800378 23.94780922 0.0287571 C33.38444439 0.03869116 42.7183355 0.39062534 52.12207031 1.19561768 C52.12207031 1.52561768 52.12207031 1.85561768 52.12207031 2.19561768 C50.46100754 2.20774796 50.46100754 2.20774796 48.76638794 2.22012329 C38.20820361 2.29841348 27.65013521 2.38634229 17.09210396 2.48314476 C11.66722164 2.53258883 6.24235412 2.57891207 0.81738281 2.61749268 C-34.96171386 0.99356804 -34.96171386 0.99356804 -69.87792969 6.19561768 C-72.34335364 6.21582607 -74.78949334 6.19089057 -77.25292969 6.13311768 C-83.67090534 6.04575866 -89.6799588 6.63009854 -96.01464844 7.75030518 C-99.699752 8.32343179 -103.15804399 8.34149555 -106.87792969 8.19561768 C-106.87792969 7.86561768 -106.87792969 7.53561768 -106.87792969 7.19561768 C-94.18449149 5.0682258 -81.55154722 3.60275908 -68.71289062 2.69927979 C-64.47764371 2.39541207 -60.24863376 2.05805822 -56.02001953 1.67315674 C-37.32943385 0.03056575 -18.74610561 -0.07892003 0 0 Z " fill="#3875CB" transform="translate(797.8779296875,4.80438232421875)"/>
<path d="M0 0 C0 3 0 3 -2.4375 5.5 C-3.283125 6.325 -4.12875 7.15 -5 8 C-5.33 8.99 -5.66 9.98 -6 11 C-7.31647119 11.69937532 -8.65022151 12.36729133 -10 13 C-10.33 13.66 -10.66 14.32 -11 15 C-11.66 15 -12.32 15 -13 15 C-13.04125 15.556875 -13.0825 16.11375 -13.125 16.6875 C-14.22399503 19.59198686 -16.03100489 20.89279517 -18.44140625 22.765625 C-20.18142936 24.09494717 -20.18142936 24.09494717 -22.25 26.25 C-24 28 -24 28 -26 29 C-26.226875 29.5775 -26.45375 30.155 -26.6875 30.75 C-28.40078067 33.68705257 -30.60466272 34.95513957 -33.44140625 36.75390625 C-35.30648329 38.01360334 -35.30648329 38.01360334 -36 41 C-38.475 41.495 -38.475 41.495 -41 42 C-37.96997286 38.37874805 -34.93217419 34.87118461 -31.5625 31.5625 C-29.0872175 29.13073895 -26.76449126 26.62924154 -24.5 24 C-19.38191935 18.08400031 -13.85560016 12.81332899 -7.93359375 7.7109375 C-5.16155106 5.25809972 -2.58428299 2.64889006 0 0 Z " fill="#3072D4" transform="translate(257,218)"/>
<path d="M0 0 C0.66 0 1.32 0 2 0 C2.04955115 6.01398527 2.08579131 12.02785086 2.10986328 18.04199219 C2.11990179 20.08660961 2.13353542 22.13121274 2.15087891 24.17578125 C2.1752217 27.11982761 2.18650478 30.06368363 2.1953125 33.0078125 C2.20563507 33.9174173 2.21595764 34.82702209 2.22659302 35.76419067 C2.2274435 40.60849782 1.83544228 44.44046239 0 49 C-0.38509005 50.76436685 -0.74158636 52.53533958 -1.0625 54.3125 C-1.89051095 58.89051095 -1.89051095 58.89051095 -3 60 C-3.12375 61.051875 -3.2475 62.10375 -3.375 63.1875 C-4.00185594 67.01132125 -5.11723722 69.6437707 -7 73 C-7.66 73 -8.32 73 -9 73 C-8.3503125 71.14375 -8.3503125 71.14375 -7.6875 69.25 C-1.92194939 51.8180066 0.49232763 34.70606904 0.1875 16.4375 C0.17239244 14.82878888 0.15871501 13.22006369 0.14648438 11.61132812 C0.11403575 7.74052522 0.0626075 3.87042766 0 0 Z " fill="#286AC7" transform="translate(943,789)"/>
<path d="M0 0 C0 0.33 0 0.66 0 1 C-1.54772095 1.28665527 -1.54772095 1.28665527 -3.12670898 1.57910156 C-7.04333105 2.30563834 -10.95892556 3.03759519 -14.87426758 3.77099609 C-16.5523875 4.08459465 -18.23076429 4.39682245 -19.90942383 4.70751953 C-29.53604279 6.49033359 -39.10084899 8.3830516 -48.59898376 10.76837158 C-51.88338565 11.5788824 -54.58460924 12 -58 12 C-58 11.34 -58 10.68 -58 10 C-55.69 10 -53.38 10 -51 10 C-51 9.34 -51 8.68 -51 8 C-50.443125 7.96261719 -49.88625 7.92523437 -49.3125 7.88671875 C-45.31925152 7.54270579 -41.82822958 7.07502503 -38.125 5.5 C-33.89148844 3.73817499 -29.76994636 3.47364202 -25.22265625 3.2109375 C-23.02847158 3.24085065 -23.02847158 3.24085065 -22 2 C-14.68850717 0.64087582 -7.43677001 -0.2974708 0 0 Z " fill="#D5EAFC" transform="translate(669,15)"/>
<path d="M0 0 C6.33425303 0.31738794 12.66732238 0.65266411 19 1 C19.70785645 1.03738281 20.41571289 1.07476563 21.14501953 1.11328125 C32.54219825 1.7288828 32.54219825 1.7288828 36.9375 3.0625 C41.98999974 4.56726623 47.30109273 4.04531668 52.51171875 3.875 C55.87842483 3.99564344 58.00264609 4.53284397 61 6 C61 6.33 61 6.66 61 7 C40.44570436 6.76099656 20.31628347 3.8823618 0 1 C0 0.67 0 0.34 0 0 Z " fill="#3C77CC" transform="translate(679,1589)"/>
<path d="M0 0 C2.97 0.495 2.97 0.495 6 1 C6 1.66 6 2.32 6 3 C8.475 3.495 8.475 3.495 11 4 C8.91006261 6.24830883 6.89046062 7.78046574 4.20703125 9.26171875 C3.49482422 9.65810547 2.78261719 10.05449219 2.04882812 10.46289062 C1.31083984 10.86701172 0.57285156 11.27113281 -0.1875 11.6875 C-0.93708984 12.10322266 -1.68667969 12.51894531 -2.45898438 12.94726562 C-4.30348466 13.96937725 -6.1514131 14.9852981 -8 16 C-8.33 15.34 -8.66 14.68 -9 14 C-8.67 13.34 -8.34 12.68 -8 12 C-6.68 12 -5.36 12 -4 12 C-4 11.34 -4 10.68 -4 10 C-3.01 10 -2.02 10 -1 10 C-0.67 6.7 -0.34 3.4 0 0 Z " fill="#1F69D5" transform="translate(1184,1489)"/>
<path d="M0 0 C0.33 0 0.66 0 1 0 C1.27783731 11.39132979 0.8134521 22.6984063 0.0625 34.0625 C0.01893372 34.74387024 -0.02463257 35.42524048 -0.06951904 36.1272583 C-0.19559339 38.07610144 -0.33004287 40.02439727 -0.46484375 41.97265625 C-0.543396 43.10968994 -0.62194824 44.24672363 -0.70288086 45.41821289 C-1 48 -1 48 -2 49 C-2.23287008 50.68183948 -2.41264166 52.3712416 -2.5625 54.0625 C-2.64628906 54.98160156 -2.73007813 55.90070312 -2.81640625 56.84765625 C-2.87699219 57.55792969 -2.93757813 58.26820313 -3 59 C-5.58795887 55.11806169 -4.85867317 52.51261699 -4.25 48.125 C-4.04656447 46.49368988 -3.84480934 44.86216952 -3.64453125 43.23046875 C-3.53705566 42.37501465 -3.42958008 41.51956055 -3.31884766 40.63818359 C-2.78786731 36.24478879 -2.35704739 31.84274758 -1.9375 27.4375 C-1.85419434 26.56601318 -1.77088867 25.69452637 -1.68505859 24.79663086 C-0.91878357 16.54189867 -0.41232963 8.27914489 0 0 Z " fill="#C9E2F9" transform="translate(1594,857)"/>
<path d="M0 0 C-2.76058167 1.46475056 -5.41818687 2.51237034 -8.421875 3.3671875 C-9.27531494 3.61130371 -10.12875488 3.85541992 -11.00805664 4.10693359 C-11.91289795 4.36039551 -12.81773926 4.61385742 -13.75 4.875 C-15.14496704 5.26872803 -15.14496704 5.26872803 -16.56811523 5.67041016 C-39.16300889 12 -39.16300889 12 -45 12 C-45 11.34 -45 10.68 -45 10 C-42.15625 9.34375 -42.15625 9.34375 -39.3125 8.6875 C-38.1265625 8.41292969 -36.940625 8.13835937 -35.71875 7.85546875 C-33.34533204 7.3094829 -30.97045646 6.76976951 -28.59375 6.23828125 C-22.69472081 4.91099968 -16.89152464 3.45838715 -11.12109375 1.6484375 C-7.26806429 0.47053162 -4.0517626 -0.11254896 0 0 Z " fill="#2F6FCA" transform="translate(1027,1565)"/>
<path d="M0 0 C0.33 0 0.66 0 1 0 C1.19125814 7.06592576 1.32572423 13.29644192 -1 20 C-2.04078039 25.1044156 -2.3100864 30.18603843 -2.5625 35.375 C-2.60568359 36.20644531 -2.64886719 37.03789063 -2.69335938 37.89453125 C-2.79861805 39.92953228 -2.89973072 41.96474703 -3 44 C-3.99 44.495 -3.99 44.495 -5 45 C-4.6522456 34.05173224 -3.92589913 23.24050589 -2.5 12.375 C-2.36940186 11.3739624 -2.23880371 10.3729248 -2.10424805 9.34155273 C-1.13762951 2.27525902 -1.13762951 2.27525902 0 0 Z " fill="#2F6FCA" transform="translate(12,684)"/>
<path d="M0 0 C2.475 0.99 2.475 0.99 5 2 C5 2.99 5 3.98 5 5 C6.32 4.67 7.64 4.34 9 4 C11.125 8.625 11.125 8.625 10 12 C10.66 12 11.32 12 12 12 C12.45375 12.804375 12.9075 13.60875 13.375 14.4375 C14.73420995 17.15236193 14.73420995 17.15236193 17.1875 17.8125 C18.0846875 17.9053125 18.0846875 17.9053125 19 18 C19 18.66 19 19.32 19 20 C18.34 20 17.68 20 17 20 C16.67 20.99 16.34 21.98 16 23 C10.54051387 15.4149827 5.0988769 7.83485963 0 0 Z " fill="#E5F1FC" transform="translate(1435,320)"/>
<path d="M0 0 C0.97918775 3.07556958 1.1498998 3.68592423 -0.3125 6.75 C-0.869375 7.4925 -1.42625 8.235 -2 9 C-2.66 9 -3.32 9 -4 9 C-4.061875 10.258125 -4.12375 11.51625 -4.1875 12.8125 C-4.59556848 16.20306895 -4.66742865 16.72712095 -7.4375 19 C-10 20 -10 20 -12 20 C-12.99 22.475 -12.99 22.475 -14 25 C-14.66 24.67 -15.32 24.34 -16 24 C-10.66666667 16 -5.33333333 8 0 0 Z " fill="#2C6FCE" transform="translate(149,341)"/>
<path d="M0 0 C-8.59392997 4.54698975 -17.53789762 4.2566532 -27.0625 4.125 C-28.30966797 4.11597656 -29.55683594 4.10695313 -30.84179688 4.09765625 C-33.89473504 4.07426209 -36.94726306 4.04148174 -40 4 C-40 3.67 -40 3.34 -40 3 C-38.86570557 2.91697632 -38.86570557 2.91697632 -37.70849609 2.83227539 C-34.26378096 2.57852932 -30.8193949 2.32055509 -27.375 2.0625 C-25.59029297 1.93198242 -25.59029297 1.93198242 -23.76953125 1.79882812 C-22.61582031 1.71181641 -21.46210937 1.62480469 -20.2734375 1.53515625 C-19.21560059 1.456604 -18.15776367 1.37805176 -17.06787109 1.29711914 C-3.1192996 -0.05378103 -3.1192996 -0.05378103 0 0 Z " fill="#CFE6FC" transform="translate(896,1593)"/>
<path d="M0 0 C0.33 0 0.66 0 1 0 C1.50899922 4.45735314 2.00554676 8.91601174 2.5 13.375 C2.64308594 14.62667969 2.78617187 15.87835937 2.93359375 17.16796875 C3.70077771 24.1456895 4.22125081 30.97938414 4 38 C3.34 37.67 2.68 37.34 2 37 C1.71371668 34.4736235 1.53282808 32.03433175 1.4375 29.5 C1.64705349 24.87778611 1.64705349 24.87778611 0 21 C-0.08685603 19.43827255 -0.10702219 17.87270656 -0.09765625 16.30859375 C-0.09443359 15.36435547 -0.09121094 14.42011719 -0.08789062 13.44726562 C-0.07951172 12.45404297 -0.07113281 11.46082031 -0.0625 10.4375 C-0.05798828 9.44041016 -0.05347656 8.44332031 -0.04882812 7.41601562 C-0.03700007 4.94395151 -0.02051849 2.47200482 0 0 Z " fill="#D2E8FC" transform="translate(5,866)"/>
<path d="M0 0 C2.84654822 2.84654822 3.67002149 6.32714994 4.9375 10.0625 C5.33400757 11.21516357 5.33400757 11.21516357 5.73852539 12.39111328 C6.26025567 13.91018875 6.77976656 15.43002859 7.296875 16.95068359 C7.87864311 18.64629522 8.48322954 20.33405871 9.09375 22.01953125 C11.11375899 27.65872302 11.11375899 27.65872302 10 31 C9.67 31 9.34 31 9 31 C9 29.02 9 27.04 9 25 C8.34 25 7.68 25 7 25 C6.731875 24.030625 6.46375 23.06125 6.1875 22.0625 C5.795625 21.051875 5.40375 20.04125 5 19 C4.01 18.67 3.02 18.34 2 18 C2.33 15.36 2.66 12.72 3 10 C2.34 10 1.68 10 1 10 C0.67 6.7 0.34 3.4 0 0 Z " fill="#3274D0" transform="translate(1546,523)"/>
<path d="M0 0 C-0.66 0 -1.32 0 -2 0 C-2 0.66 -2 1.32 -2 2 C-5.63 2.66 -9.26 3.32 -13 4 C-13 4.66 -13 5.32 -13 6 C-22.45454545 11.63636364 -22.45454545 11.63636364 -29 10 C-25.41514107 6.41514107 -20.28757675 5.14301405 -15.625 3.3125 C-14.57054687 2.88388672 -13.51609375 2.45527344 -12.4296875 2.01367188 C-11.41390625 1.61341797 -10.398125 1.21316406 -9.3515625 0.80078125 C-7.95671631 0.24644409 -7.95671631 0.24644409 -6.53369141 -0.3190918 C-3.85986611 -1.0376598 -2.5637783 -0.9429082 0 0 Z " fill="#3573CD" transform="translate(521,57)"/>
<path d="M0 0 C5.61 0.33 11.22 0.66 17 1 C17 1.66 17 2.32 17 3 C18.423125 2.9690625 18.423125 2.9690625 19.875 2.9375 C23 3 23 3 25 4 C26.53668865 4.22467831 28.07968054 4.40796805 29.625 4.5625 C30.44226563 4.64628906 31.25953125 4.73007812 32.1015625 4.81640625 C32.72804688 4.87699219 33.35453125 4.93757813 34 5 C34.495 6.485 34.495 6.485 35 8 C23.15234775 6.50227792 11.61075576 3.73580485 0 1 C0 0.67 0 0.34 0 0 Z " fill="#CEE6FB" transform="translate(958,20)"/>
<path d="M0 0 C-3.96 2.97 -7.92 5.94 -12 9 C-12.66 7.68 -13.32 6.36 -14 5 C-14.99 5 -15.98 5 -17 5 C-16.34 3.68 -15.68 2.36 -15 1 C-13.68 1 -12.36 1 -11 1 C-11 1.66 -11 2.32 -11 3 C-10.4225 2.71125 -9.845 2.4225 -9.25 2.125 C-8.13625 1.568125 -8.13625 1.568125 -7 1 C-6.319375 0.608125 -5.63875 0.21625 -4.9375 -0.1875 C-3 -1 -3 -1 0 0 Z " fill="#E9F2FB" transform="translate(327,161)"/>
<path d="M0 0 C0.66 0 1.32 0 2 0 C3.75445809 10.76172061 4.23990235 21.11109903 4 32 C3.67 32 3.34 32 3 32 C2.49167358 28.16772354 1.99485826 24.33403696 1.5 20.5 C1.35691406 19.42234375 1.21382812 18.3446875 1.06640625 17.234375 C0.32383191 11.43522303 -0.17027502 5.84610901 0 0 Z " fill="#CFE8FB" transform="translate(1591,704)"/>
<path d="M0 0 C0.66 3.96 1.32 7.92 2 12 C2.99 11.67 3.98 11.34 5 11 C4.67 12.98 4.34 14.96 4 17 C4.66 17 5.32 17 6 17 C6 18.98 6 20.96 6 23 C3.05377618 19.45546612 1.23016942 15.58911417 -0.6875 11.4375 C-1.00783203 10.76525391 -1.32816406 10.09300781 -1.65820312 9.40039062 C-3.04125162 6.43081743 -4 4.31483057 -4 1 C-1 0 -1 0 0 0 Z " fill="#2469CE" transform="translate(77,1125)"/>
<path d="M0 0 C1.49080078 0.02707031 1.49080078 0.02707031 3.01171875 0.0546875 C3.77097656 0.07789063 4.53023437 0.10109375 5.3125 0.125 C2.39042118 1.7142303 -0.33540848 2.63919898 -3.57421875 3.37890625 C-4.51330078 3.59353516 -5.45238281 3.80816406 -6.41992188 4.02929688 C-7.39509766 4.24650391 -8.37027344 4.46371094 -9.375 4.6875 C-10.33083984 4.90857422 -11.28667969 5.12964844 -12.27148438 5.35742188 C-18.07486425 6.6668416 -23.76276103 7.58194978 -29.6875 8.125 C-29.3575 7.465 -29.0275 6.805 -28.6875 6.125 C-26.78564453 5.5625 -26.78564453 5.5625 -24.3203125 5.125 C-23.43472656 4.96 -22.54914062 4.795 -21.63671875 4.625 C-20.70472656 4.46 -19.77273438 4.295 -18.8125 4.125 C-16.98063393 3.79797231 -15.14983708 3.46488265 -13.3203125 3.125 C-12.50449707 2.980625 -11.68868164 2.83625 -10.84814453 2.6875 C-0.48154327 -0.01133043 -0.48154327 -0.01133043 0 0 Z " fill="#316FCA" transform="translate(975.6875,1576.875)"/>
<path d="M0 0 C6.51484678 0.43432312 12.0419503 1.85097994 18.1953125 4.01953125 C20.45502151 4.80948524 22.69015228 5.50540565 25 6.125 C27.54953002 6.86861292 29.69180083 7.70740847 32 9 C28.6086127 10.69569365 25.10870459 8.82607632 21.625 7.8125 C20.81949707 7.58344971 20.01399414 7.35439941 19.18408203 7.1184082 C12.72544284 5.26140461 6.34169392 3.22581022 0 1 C0 0.67 0 0.34 0 0 Z " fill="#3875CD" transform="translate(547,1557)"/>
<path d="M0 0 C4.61487965 1.45733042 4.61487965 1.45733042 6.375 3.9375 C7 6 7 6 6 9 C6.93954106 11.30444814 6.93954106 11.30444814 8.375 13.625 C8.83648438 14.42164063 9.29796875 15.21828125 9.7734375 16.0390625 C10.85240989 17.92724677 10.85240989 17.92724677 12 19 C12.04063832 20.66617115 12.042721 22.33388095 12 24 C8.95982471 20.32884494 6.97488624 16.24592382 4.875 12 C4.51535156 11.2884375 4.15570312 10.576875 3.78515625 9.84375 C3.44097656 9.1528125 3.09679688 8.461875 2.7421875 7.75 C2.27594971 6.81414062 2.27594971 6.81414062 1.80029297 5.859375 C0.96920481 3.92845145 0.45399323 2.04948754 0 0 Z " fill="#D9EDFC" transform="translate(1512,443)"/>
<path d="M0 0 C4.875 0.875 4.875 0.875 6 2 C7.34747084 2.23075082 8.70377565 2.41153063 10.0625 2.5625 C11.361875 2.706875 12.66125 2.85125 14 3 C14.33 3.99 14.66 4.98 15 6 C15.66 6 16.32 6 17 6 C17 6.99 17 7.98 17 9 C17.99 9 18.98 9 20 9 C20 9.66 20 10.32 20 11 C15.08558588 9.56347895 10.99761642 7.45840385 6.625 4.875 C5.98433594 4.50246094 5.34367187 4.12992188 4.68359375 3.74609375 C3.11951523 2.83565998 1.55934466 1.91851809 0 1 C0 0.67 0 0.34 0 0 Z " fill="#2B6FCE" transform="translate(399,1490)"/>
<path d="M0 0 C1.04449911 3.13349732 0.93423645 3.98968256 0 7 C-0.66 7 -1.32 7 -2 7 C-2.2165625 7.86625 -2.2165625 7.86625 -2.4375 8.75 C-2.95833333 10.83333333 -3.47916667 12.91666667 -4 15 C-4.66 15 -5.32 15 -6 15 C-5.9175 15.7425 -5.835 16.485 -5.75 17.25 C-6.07105184 20.78157027 -7.35265617 21.76630364 -10 24 C-10.33 23.34 -10.66 22.68 -11 22 C-9.82366676 19.35027967 -8.59182019 16.81416324 -7.25 14.25 C-6.8890625 13.54617188 -6.528125 12.84234375 -6.15625 12.1171875 C-5.44505797 10.73087839 -4.73092625 9.34607291 -4.01367188 7.96289062 C-2.64964652 5.32156984 -1.32272505 2.66219346 0 0 Z " fill="#2B6ECB" transform="translate(91,437)"/>
<path d="M0 0 C1.32 0.33 2.64 0.66 4 1 C1.03 4.3 -1.94 7.6 -5 11 C-7 8 -7 8 -7 4 C-6.030625 3.71125 -5.06125 3.4225 -4.0625 3.125 C-0.89335797 2.35785318 -0.89335797 2.35785318 0 0 Z " fill="#236BD5" transform="translate(1389,1333)"/>
<path d="M0 0 C0.33 1.32 0.66 2.64 1 4 C0.21625 4.226875 -0.5675 4.45375 -1.375 4.6875 C-4.67656185 6.33828093 -4.81621625 7.61776073 -6 11 C-6.99 11.66 -7.98 12.32 -9 13 C-9.33 13.99 -9.66 14.98 -10 16 C-10.99 16.33 -11.98 16.66 -13 17 C-13.33 17.66 -13.66 18.32 -14 19 C-14.66 18.67 -15.32 18.34 -16 18 C-10.95630444 11.67536589 -5.89401276 5.55288018 0 0 Z " fill="#CCE5FA" transform="translate(702,703)"/>
<path d="M0 0 C0.33 0 0.66 0 1 0 C1 1.98 1 3.96 1 6 C0.34 6 -0.32 6 -1 6 C-0.93039062 6.68578125 -0.86078125 7.3715625 -0.7890625 8.078125 C-1.06730471 11.93229492 -2.50816543 14.38207804 -4.375 17.75 C-5.00148438 18.89984375 -5.62796875 20.0496875 -6.2734375 21.234375 C-8 24 -8 24 -10 25 C-8.30387431 19.55454384 -6.10842318 14.36525793 -3.875 9.125 C-3.50246094 8.24585938 -3.12992188 7.36671875 -2.74609375 6.4609375 C-1.83276472 4.30641773 -0.91735068 2.15280976 0 0 Z " fill="#CFE6FB" transform="translate(1538,1101)"/>
<path d="M0 0 C0.66 0.33 1.32 0.66 2 1 C0.57150621 4.42050127 -0.86934846 7.83566007 -2.3125 11.25 C-2.71662109 12.21808594 -3.12074219 13.18617187 -3.53710938 14.18359375 C-3.93349609 15.11816406 -4.32988281 16.05273438 -4.73828125 17.015625 C-5.09962158 17.87446289 -5.46096191 18.73330078 -5.83325195 19.61816406 C-6.99837345 21.99667952 -8.34313317 23.94090009 -10 26 C-9.74279326 24.41439607 -9.46861201 22.83154076 -9.1875 21.25 C-9.03667969 20.36828125 -8.88585938 19.4865625 -8.73046875 18.578125 C-7.94038279 15.78958633 -6.7883182 14.24491008 -5 12 C-4.28566879 9.35065178 -4.28566879 9.35065178 -4 7 C-3.34 7 -2.68 7 -2 7 C-1.855625 6.030625 -1.71125 5.06125 -1.5625 4.0625 C-1 1 -1 1 0 0 Z " fill="#2B6EC9" transform="translate(1537,1100)"/>
<path d="M0 0 C2.55687431 7.61844182 -3.06645694 17.00119168 -6 24 C-6.66 24 -7.32 24 -8 24 C-6.5102402 15.50836915 -3.31428738 7.9105161 0 0 Z " fill="#D4E9FC" transform="translate(669,748)"/>
<path d="M0 0 C1.1171875 3.71875 1.1171875 3.71875 0.0625 6.25 C-0.288125 6.8275 -0.63875 7.405 -1 8 C-1.66 8 -2.32 8 -3 8 C-3.33 10.97 -3.66 13.94 -4 17 C-4.66 17 -5.32 17 -6 17 C-6 17.66 -6 18.32 -6 19 C-7.375 20.625 -7.375 20.625 -9 22 C-9.66 22 -10.32 22 -11 22 C-9.23465356 17.15984684 -6.80463275 12.7164873 -4.375 8.1875 C-3.95476562 7.39923828 -3.53453125 6.61097656 -3.1015625 5.79882812 C-2.0699991 3.86464674 -1.03608828 1.93176017 0 0 Z " fill="#CCE2FB" transform="translate(1506,1170)"/>
<path d="M0 0 C0.89203125 0.11085938 1.7840625 0.22171875 2.703125 0.3359375 C3.37859375 0.43132813 4.0540625 0.52671875 4.75 0.625 C1.10118324 2.6967067 -2.78233693 3.70068078 -6.8125 4.75 C-7.48474609 4.93175781 -8.15699219 5.11351562 -8.84960938 5.30078125 C-11.73730855 6.06356971 -14.2497421 6.625 -17.25 6.625 C-17.25 5.965 -17.25 5.305 -17.25 4.625 C-15.296875 3.90885417 -13.34375 3.19270833 -11.390625 2.4765625 C-9.23508887 1.67977822 -9.23508887 1.67977822 -7.3125 0.5 C-4.64738017 -0.6306569 -2.85106388 -0.37513998 0 0 Z " fill="#2168CF" transform="translate(769.25,666.375)"/>
<path d="M0 0 C1 2 1 2 0.25 4.375 C-0.95138534 6.89790922 -2.14521899 8.91337136 -4 11 C-4.66 11 -5.32 11 -6 11 C-6.226875 11.61875 -6.45375 12.2375 -6.6875 12.875 C-8.37929835 15.61410209 -9.99244161 16.05024472 -13 17 C-8.74093983 11.27445024 -4.39719064 5.62007798 0 0 Z " fill="#3071D1" transform="translate(195,282)"/>
<path d="M0 0 C3 1 3 1 4.05908203 2.88598633 C4.37216309 3.69318115 4.68524414 4.50037598 5.0078125 5.33203125 C5.35457031 6.21310547 5.70132812 7.09417969 6.05859375 8.00195312 C6.41050781 8.92943359 6.76242187 9.85691406 7.125 10.8125 C7.48464844 11.72837891 7.84429688 12.64425781 8.21484375 13.58789062 C9.68370489 17.36456917 11.09231742 21.04461166 12 25 C11.34 25 10.68 25 10 25 C8.32742736 21.21091124 6.66294885 17.41832115 5 13.625 C4.28457031 12.00464844 4.28457031 12.00464844 3.5546875 10.3515625 C3.10351562 9.3203125 2.65234375 8.2890625 2.1875 7.2265625 C1.76855469 6.27346191 1.34960938 5.32036133 0.91796875 4.33837891 C0 2 0 2 0 0 Z " fill="#DDEFFE" transform="translate(1531,484)"/>
<path d="M0 0 C4.92908146 3.87792288 8.5423711 7.76116833 12 13 C10.35 13.33 8.7 13.66 7 14 C5.8795019 11.90840356 5.0350104 10.23807072 4.6875 7.875 C4.13556488 5.6997849 4.13556488 5.6997849 1.4375 4.75 C0.633125 4.5025 -0.17125 4.255 -1 4 C-0.67 2.68 -0.34 1.36 0 0 Z " fill="#256AD1" transform="translate(1365,240)"/>
<path d="M0 0 C0.66 0.33 1.32 0.66 2 1 C-0.36292656 3.52588702 -1.66462511 4.88820837 -5 6 C-5.2475 6.639375 -5.495 7.27875 -5.75 7.9375 C-7 10 -7 10 -10.625 11.25 C-11.73875 11.4975 -12.8525 11.745 -14 12 C-14 12.66 -14 13.32 -14 14 C-15.32 13.67 -16.64 13.34 -18 13 C-17.03578125 12.31292969 -16.0715625 11.62585938 -15.078125 10.91796875 C-13.80206523 10.00783788 -12.52602457 9.09768022 -11.25 8.1875 C-10.29867188 7.50977539 -10.29867188 7.50977539 -9.328125 6.81835938 C-6.19148171 4.58023369 -3.06803042 2.33201302 0 0 Z " fill="#2F6FCC" transform="translate(349,144)"/>
<path d="M0 0 C1.1700097 3.91736581 0.69584017 6.97959015 0 11 C-0.66 11 -1.32 11 -2 11 C-2 11.66 -2 12.32 -2 13 C-2.66 13 -3.32 13 -4 13 C-4.0825 13.7425 -4.165 14.485 -4.25 15.25 C-5.1396946 18.51221354 -6.48503749 19.80954878 -9 22 C-7.45173401 17.04242102 -5.48219062 12.36189599 -3.375 7.625 C-2.88773438 6.52091797 -2.88773438 6.52091797 -2.390625 5.39453125 C-1.59615497 3.59529031 -0.79841229 1.79749504 0 0 Z " fill="#D1E6FB" transform="translate(1527,1126)"/>
<path d="M0 0 C2.06568201 3.09852301 3.60295419 6.19392874 5.1875 9.5625 C5.73792969 10.71878906 6.28835937 11.87507813 6.85546875 13.06640625 C7.23316406 14.03449219 7.61085938 15.00257812 8 16 C7.67 16.66 7.34 17.32 7 18 C4.23625224 16.41231512 2.81167113 15.55349748 1 13 C0.16604293 8.66761927 0.01289969 4.40524509 0 0 Z " fill="#D7E8FA" transform="translate(72,1126)"/>
<path d="M0 0 C2.91517292 1.07401108 4.77810176 1.77810176 7 4 C10.59679066 3.67673447 10.59679066 3.67673447 14 3 C14.33 4.32 14.66 5.64 15 7 C14.01 7.33 13.02 7.66 12 8 C12 8.66 12 9.32 12 10 C8.78727751 8.56006357 6.3793336 6.76981628 3.75 4.4375 C3.04359375 3.81746094 2.3371875 3.19742187 1.609375 2.55859375 C1.07828125 2.04425781 0.5471875 1.52992187 0 1 C0 0.67 0 0.34 0 0 Z " fill="#286DD0" transform="translate(272,1398)"/>
<path d="M0 0 C3.45553206 3.13301573 5.62312058 6.42606047 7.875 10.5 C8.51179687 11.6240625 9.14859375 12.748125 9.8046875 13.90625 C11 17 11 17 10.1953125 19.40625 C9.80085937 19.9321875 9.40640625 20.458125 9 21 C7.18757677 16.9811485 5.66498383 13.38889325 5 9 C4.34 9 3.68 9 3 9 C2.01 6.03 1.02 3.06 0 0 Z " fill="#D0E7FB" transform="translate(920,731)"/>
<path d="M0 0 C4.06243957 -0.05819473 8.12477146 -0.09366215 12.1875 -0.125 C13.33798828 -0.14175781 14.48847656 -0.15851563 15.67382812 -0.17578125 C16.78564453 -0.18222656 17.89746094 -0.18867187 19.04296875 -0.1953125 C20.06414795 -0.20578613 21.08532715 -0.21625977 22.13745117 -0.22705078 C25.12612167 0.01000368 27.29423369 0.74382898 30 2 C30 2.33 30 2.66 30 3 C26.31225385 2.86001598 22.62487337 2.71195796 18.9375 2.5625 C17.89916016 2.52318359 16.86082031 2.48386719 15.79101562 2.44335938 C10.45969359 2.22333656 5.26310107 1.8883816 0 1 C0 0.67 0 0.34 0 0 Z " fill="#437FD2" transform="translate(710,1593)"/>
<path d="M0 0 C-0.99 0 -1.98 0 -3 0 C-3.33 0.99 -3.66 1.98 -4 3 C-6.0625 4.1875 -6.0625 4.1875 -8 5 C-8.33 4.67 -8.66 4.34 -9 4 C-11.18639453 3.92741054 -13.37500389 3.91626217 -15.5625 3.9375 C-16.76003906 3.94652344 -17.95757813 3.95554687 -19.19140625 3.96484375 C-20.58166016 3.98224609 -20.58166016 3.98224609 -22 4 C-22 3.67 -22 3.34 -22 3 C-19.08559401 2.3013821 -16.16913913 1.6157969 -13.25 0.9375 C-12.425 0.73833984 -11.6 0.53917969 -10.75 0.33398438 C-9.55117188 0.05844727 -9.55117188 0.05844727 -8.328125 -0.22265625 C-7.5949707 -0.39547119 -6.86181641 -0.56828613 -6.10644531 -0.74633789 C-3.79867217 -1.02424428 -2.20083963 -0.69809241 0 0 Z " fill="#D0E7FA" transform="translate(985,1578)"/>
<path d="M0 0 C1.55532936 6.22131745 0.03252195 11.5340274 -3.125 17.0625 C-3.74375 18.031875 -4.3625 19.00125 -5 20 C-5.66 19.67 -6.32 19.34 -7 19 C-4.69 12.73 -2.38 6.46 0 0 Z " fill="#2769CC" transform="translate(53,523)"/>
<path d="M0 0 C1.875 0.3125 1.875 0.3125 4 1 C6 4 6 4 6 8 C7.65 8 9.3 8 11 8 C10.67 10.31 10.34 12.62 10 15 C6.76612108 12.04732794 4.77754751 9.12077252 2.75 5.25 C2.22921875 4.26515625 1.7084375 3.2803125 1.171875 2.265625 C0.78515625 1.51796875 0.3984375 0.7703125 0 0 Z " fill="#E0EFFC" transform="translate(1465,362)"/>
<path d="M0 0 C-0.33 0.99 -0.66 1.98 -1 3 C-1.99 3 -2.98 3 -4 3 C-4.66 4.65 -5.32 6.3 -6 8 C-6.99 8 -7.98 8 -9 8 C-9.33 8.66 -9.66 9.32 -10 10 C-12.32156597 10.40729228 -14.6568787 10.74438677 -17 11 C-14.06072511 7.85177192 -11.0143222 5.54542155 -7.375 3.25 C-6.41335938 2.63640625 -5.45171875 2.0228125 -4.4609375 1.390625 C-2 0 -2 0 0 0 Z " fill="#DAEDFC" transform="translate(1238,1468)"/>
<path d="M0 0 C2.33058639 3.49587959 3.19132 6.92041315 4.1875 10.9375 C4.47270508 12.01161133 4.47270508 12.01161133 4.76367188 13.10742188 C5.6919477 16.80339833 6.1215946 19.36551019 5 23 C1.51344735 15.23449637 -0.34923684 8.5563026 0 0 Z " fill="#C7E1FA" transform="translate(25,989)"/>
<path d="M0 0 C0.33 0 0.66 0 1 0 C1.58193283 9.69888045 -0.36182566 19.45120807 -5 28 C-5.66 28 -6.32 28 -7 28 C-6.566875 26.7625 -6.13375 25.525 -5.6875 24.25 C-3.05663737 16.34494357 -0.94172929 8.28721773 0 0 Z " fill="#497DCF" transform="translate(941,834)"/>
<path d="M0 0 C0 0.99 0 1.98 0 3 C-5.09155972 7.73797918 -10.14520141 9.7507346 -17 10 C-13.64137949 7.29813944 -10.05348732 5.32834828 -6.25 3.3125 C-5.34701172 2.83200195 -5.34701172 2.83200195 -4.42578125 2.34179688 C-2.95211989 1.5581833 -1.47627806 0.77867267 0 0 Z " fill="#2F72CF" transform="translate(442,89)"/>
<path d="M0 0 C3.77309524 0.78113293 7.54300262 1.57670073 11.3125 2.375 C12.38435547 2.59671875 13.45621094 2.8184375 14.56054688 3.046875 C15.58857422 3.26601563 16.61660156 3.48515625 17.67578125 3.7109375 C18.62364502 3.90993652 19.57150879 4.10893555 20.5480957 4.31396484 C23 5 23 5 26 7 C18.5928819 6.37727768 11.31805865 5.29512034 4 4 C4 3.34 4 2.68 4 2 C2.68 2 1.36 2 0 2 C0 1.34 0 0.68 0 0 Z " fill="#3676CB" transform="translate(979,25)"/>
<path d="M0 0 C0.33 1.32 0.66 2.64 1 4 C-2.80264136 7.34994596 -6.25086953 10.0571739 -11 12 C-11.66 11.67 -12.32 11.34 -13 11 C-11.54712339 9.66072279 -10.08752741 8.32873153 -8.625 7 C-7.81289063 6.2575 -7.00078125 5.515 -6.1640625 4.75 C-4 3 -4 3 -2 3 C-2 2.34 -2 1.68 -2 1 C-1.34 0.67 -0.68 0.34 0 0 Z " fill="#2B6CD0" transform="translate(901,912)"/>
<path d="M0 0 C1.48199902 0.44909061 2.96055236 0.90956564 4.4375 1.375 C5.26121094 1.63023437 6.08492187 1.88546875 6.93359375 2.1484375 C9 3 9 3 10 5 C9.34 5 8.68 5 8 5 C8.26676204 6.98491642 8.26676204 6.98491642 9 9 C9.99 9.33 10.98 9.66 12 10 C11.34 10.66 10.68 11.32 10 12 C8.33032474 10.19019128 6.66417692 8.3773524 5 6.5625 C4.28457031 5.7880957 4.28457031 5.7880957 3.5546875 4.99804688 C0 1.11328125 0 1.11328125 0 0 Z " fill="#DCECFB" transform="translate(1381,256)"/>
<path d="M0 0 C1.98 0.66 3.96 1.32 6 2 C6.12375 2.804375 6.2475 3.60875 6.375 4.4375 C6.684375 5.7059375 6.684375 5.7059375 7 7 C7.66 7.33 8.32 7.66 9 8 C9 9.65 9 11.3 9 13 C4.76568424 9.39299028 2.5307901 4.85413839 0 0 Z " fill="#DDEEFD" transform="translate(1454,346)"/>
<path d="M0 0 C1 2 1 2 0.5 3.8125 C-1.39318 6.5733875 -3.6378259 7.97616819 -6.44140625 9.75390625 C-8.30648329 11.01360334 -8.30648329 11.01360334 -9 14 C-10.65 14.33 -12.3 14.66 -14 15 C-9.59156563 9.70987876 -4.92440206 4.81191572 0 0 Z " fill="#2A6AC8" transform="translate(230,245)"/>
<path d="M0 0 C5.0124791 0.51853232 9.21968338 1.37469235 14 3 C17.32075074 3.7351662 20.65621822 4.37882315 24 5 C24 5.33 24 5.66 24 6 C15.44704952 6.37186741 7.71236826 4.68852395 0 1 C0 0.67 0 0.34 0 0 Z " fill="#D6EDFE" transform="translate(598,1573)"/>
<path d="M0 0 C2.97 0.495 2.97 0.495 6 1 C6 1.66 6 2.32 6 3 C7.32 2.67 8.64 2.34 10 2 C10 2.99 10 3.98 10 5 C11.32 4.67 12.64 4.34 14 4 C14.33 5.32 14.66 6.64 15 8 C14.01 8.495 14.01 8.495 13 9 C10.70539919 7.77896564 8.55906377 6.52037408 6.375 5.125 C5.76398438 4.74730469 5.15296875 4.36960937 4.5234375 3.98046875 C2.99375114 3.02100029 1.49395605 2.01420678 0 1 C0 0.67 0 0.34 0 0 Z " fill="#2E71D1" transform="translate(383,1480)"/>
<path d="M0 0 C0.66 0 1.32 0 2 0 C2.33 1.65 2.66 3.3 3 5 C3.99 5 4.98 5 6 5 C6.33 4.34 6.66 3.68 7 3 C6.95875 4.093125 6.9175 5.18625 6.875 6.3125 C6.67925334 10.08892229 6.67925334 10.08892229 9 13 C8.625 15.1875 8.625 15.1875 8 17 C6.66161267 14.54429825 5.32913768 12.08570084 4 9.625 C3.6184375 8.92632813 3.236875 8.22765625 2.84375 7.5078125 C0 2.2265625 0 2.2265625 0 0 Z " fill="#276CCB" transform="translate(93,1168)"/>
<path d="M0 0 C0.66 0 1.32 0 2 0 C2.33773437 0.90363281 2.67546875 1.80726562 3.0234375 2.73828125 C3.46945313 3.91777344 3.91546875 5.09726563 4.375 6.3125 C4.81585938 7.48425781 5.25671875 8.65601563 5.7109375 9.86328125 C6.91489648 13.08553593 6.91489648 13.08553593 9 16 C9.125 18.6875 9.125 18.6875 9 21 C6.02067065 17.51069535 4.45260749 13.60283265 2.8125 9.375 C2.53986328 8.694375 2.26722656 8.01375 1.98632812 7.3125 C0 2.27449483 0 2.27449483 0 0 Z " fill="#3070C8" transform="translate(61,1099)"/>
<path d="M0 0 C0.99 1.32 1.98 2.64 3 4 C1.625 6 1.625 6 0 8 C-0.66 8 -1.32 8 -2 8 C-2 8.99 -2 9.98 -2 11 C-2.66 11 -3.32 11 -4 11 C-4.66 12.65 -5.32 14.3 -6 16 C-6.33 15.34 -6.66 14.68 -7 14 C-5.92481882 11.55667274 -4.80191434 9.23245477 -3.5625 6.875 C-3.22412109 6.21628906 -2.88574219 5.55757813 -2.53710938 4.87890625 C-1.69850074 3.24893453 -0.85015189 1.62398091 0 0 Z " fill="#3975CB" transform="translate(99,421)"/>
<path d="M0 0 C0.58203125 1.87890625 0.58203125 1.87890625 1 4 C-0.3125 5.9375 -0.3125 5.9375 -2 8 C-2.71162443 9.64797236 -3.39031953 11.31165408 -4 13 C-4.66 13 -5.32 13 -6 13 C-6.33 14.32 -6.66 15.64 -7 17 C-7.66 17 -8.32 17 -9 17 C-7.68925635 12.53817564 -5.92933989 9.00381243 -3.375 5.125 C-2.74335937 4.15820312 -2.11171875 3.19140625 -1.4609375 2.1953125 C-0.73777344 1.10863281 -0.73777344 1.10863281 0 0 Z " fill="#2D6FCD" transform="translate(118,389)"/>
<path d="M0 0 C2.8013159 1.18517211 4.82184144 2.67593621 7.0625 4.6875 C8.031875 5.450625 9.00125 6.21375 10 7 C10.99 6.67 11.98 6.34 13 6 C13.12375 6.7425 13.2475 7.485 13.375 8.25 C13.9578376 10.81448542 14.78664449 12.69166512 16 15 C10.11928532 10.87098757 4.80838659 6.35828186 0 1 C0 0.67 0 0.34 0 0 Z " fill="#2A6DCA" transform="translate(254,1381)"/>
<path d="M0 0 C2.97 0.495 2.97 0.495 6 1 C6 2.98 6 4.96 6 7 C6.99 7 7.98 7 9 7 C9.12375 7.804375 9.2475 8.60875 9.375 9.4375 C9.58125 10.283125 9.7875 11.12875 10 12 C10.66 12.33 11.32 12.66 12 13 C11.01 13 10.02 13 9 13 C7.29928977 11.05255461 5.80452995 9.15895676 4.3125 7.0625 C3.89677734 6.49853516 3.48105469 5.93457031 3.05273438 5.35351562 C0 1.16791102 0 1.16791102 0 0 Z " fill="#3070CC" transform="translate(167,1285)"/>
<path d="M0 0 C1.09964408 3.35716883 0.88421538 5.75499861 0.22265625 9.203125 C-0.05288086 10.67265625 -0.05288086 10.67265625 -0.33398438 12.171875 C-0.53314453 13.18765625 -0.73230469 14.2034375 -0.9375 15.25 C-1.13279297 16.28125 -1.32808594 17.3125 -1.52929688 18.375 C-2.01203382 20.91819952 -2.50252017 23.45965046 -3 26 C-3.33 26 -3.66 26 -4 26 C-3.40546697 8.14350797 -3.40546697 8.14350797 0 0 Z " fill="#326FC8" transform="translate(1586,926)"/>
<path d="M0 0 C0.33 0.99 0.66 1.98 1 3 C-0.8125 6.1875 -0.8125 6.1875 -3 9 C-3.66 9 -4.32 9 -5 9 C-5.309375 9.94875 -5.61875 10.8975 -5.9375 11.875 C-7 15 -7 15 -8 17 C-8.66 17 -9.32 17 -10 17 C-8.68018255 12.31812124 -6.80204328 8.99625079 -3.875 5.125 C-3.15054688 4.15820312 -2.42609375 3.19140625 -1.6796875 2.1953125 C-1.12539063 1.47085938 -0.57109375 0.74640625 0 0 Z " fill="#CAE2FA" transform="translate(685,722)"/>
<path d="M0 0 C0.33 0 0.66 0 1 0 C1.22016692 6.07905324 1.01445836 11.18045363 -1 17 C-1.556875 18.7015625 -1.556875 18.7015625 -2.125 20.4375 C-2.41375 21.283125 -2.7025 22.12875 -3 23 C-4.01498547 19.82540369 -3.94466465 17.69122329 -3.22265625 14.453125 C-3.03896484 13.60878906 -2.85527344 12.76445313 -2.66601562 11.89453125 C-2.46685547 11.02183594 -2.26769531 10.14914062 -2.0625 9.25 C-1.86720703 8.36183594 -1.67191406 7.47367188 -1.47070312 6.55859375 C-0.98838288 4.37050678 -0.49790968 2.1845827 0 0 Z " fill="#3673CD" transform="translate(22,627)"/>
<path d="M0 0 C7.25160335 1.819794 14.12380756 4.06158371 21 7 C21 7.33 21 7.66 21 8 C18.69 8.33 16.38 8.66 14 9 C14 8.34 14 7.68 14 7 C12.68 6.67 11.36 6.34 10 6 C10 5.34 10 4.68 10 4 C8.9171875 4.0928125 8.9171875 4.0928125 7.8125 4.1875 C4.45655067 3.96377004 2.71059118 2.93613656 0 1 C0 0.67 0 0.34 0 0 Z " fill="#2F70CE" transform="translate(1072,53)"/>
<path d="M0 0 C2.33294775 -0.04241723 4.66702567 -0.04092937 7 0 C7.33 0.33 7.66 0.66 8 1 C9.5778125 1.185625 9.5778125 1.185625 11.1875 1.375 C15.01132125 2.00185594 17.6437707 3.11723722 21 5 C17.87820592 6.00693162 16.01030331 5.97289724 12.890625 5.00390625 C11.75947266 4.66069336 11.75947266 4.66069336 10.60546875 4.31054688 C9.43951172 3.94026367 9.43951172 3.94026367 8.25 3.5625 C7.45722656 3.31951172 6.66445313 3.07652344 5.84765625 2.82617188 C3.89564654 2.22645805 1.94743117 1.61441879 0 1 C0 0.67 0 0.34 0 0 Z " fill="#3D78CC" transform="translate(580,1567)"/>
<path d="M0 0 C0.66 0 1.32 0 2 0 C2.33 0.66 2.66 1.32 3 2 C4.98 2 6.96 2 9 2 C9.33 3.32 9.66 4.64 10 6 C8.68 6.99 7.36 7.98 6 9 C4.99712471 7.68969568 3.99777175 6.37669473 3 5.0625 C2.443125 4.33160156 1.88625 3.60070313 1.3125 2.84765625 C0 1 0 1 0 0 Z " fill="#1F69D0" transform="translate(189,1312)"/>
<path d="M0 0 C6.03523728 3.27408894 12.05469543 6.56493514 18 10 C15 11 15 11 11.86328125 9.56640625 C10.6739872 8.90864027 9.49053629 8.24022185 8.3125 7.5625 C7.70599609 7.22412109 7.09949219 6.88574219 6.47460938 6.53710938 C4.9779975 5.70042085 3.48830811 4.85137169 2 4 C2 3.34 2 2.68 2 2 C1.34 2 0.68 2 0 2 C0 1.34 0 0.68 0 0 Z " fill="#D8EDFE" transform="translate(388,1484)"/>
<path d="M0 0 C0.33 0 0.66 0 1 0 C1.25 2.8125 1.25 2.8125 1 6 C-0.875 7.875 -0.875 7.875 -3 9 C-3.66 9 -4.32 9 -5 9 C-5 9.66 -5 10.32 -5 11 C-5.99 10.67 -6.98 10.34 -8 10 C-6.69118353 8.33043913 -5.37785174 6.66441696 -4.0625 5 C-2.96615234 3.6078125 -2.96615234 3.6078125 -1.84765625 2.1875 C-1.23792969 1.465625 -0.62820312 0.74375 0 0 Z " fill="#276CCE" transform="translate(172,311)"/>
<path d="M0 0 C1 2 1 2 0.375 4.875 C-1.18787818 8.42699587 -2.83496039 9.83444658 -6 12 C-6.66 11.34 -7.32 10.68 -8 10 C-5.36 6.7 -2.72 3.4 0 0 Z " fill="#2C70D1" transform="translate(181,299)"/>
<path d="M0 0 C-7.20046461 3.13590328 -12.23308076 4.52791854 -20 3 C-20 2.67 -20 2.34 -20 2 C-17.41842632 1.46867611 -14.83538244 0.94965621 -12.25 0.4375 C-11.52039063 0.28603516 -10.79078125 0.13457031 -10.0390625 -0.02148438 C-6.33442927 -0.74557178 -3.60677678 -1.09817231 0 0 Z " fill="#CDE4FB" transform="translate(962,1583)"/>
<path d="M0 0 C1.32 0 2.64 0 4 0 C4 0.66 4 1.32 4 2 C6.97 2.495 6.97 2.495 10 3 C10.33 3.99 10.66 4.98 11 6 C12.49985609 7.66710346 12.49985609 7.66710346 14 9 C9.98165669 9 8.50894113 7.43998366 5.3125 5.0625 C3.82169922 3.96615234 3.82169922 3.96615234 2.30078125 2.84765625 C1.54152344 2.23792969 0.78226562 1.62820313 0 1 C0 0.67 0 0.34 0 0 Z " fill="#3071CA" transform="translate(309,1429)"/>
<path d="M0 0 C1 3 1 3 0 6 C-3.4934597 7.74672985 -6.06845568 9 -10 9 C-6.83047153 5.73991357 -3.60062011 2.77762123 0 0 Z " fill="#DBEBFD" transform="translate(1308,1415)"/>
<path d="M0 0 C4.23431576 3.60700972 6.4692099 8.14586161 9 13 C8.01 13 7.02 13 6 13 C5.731875 12.360625 5.46375 11.72125 5.1875 11.0625 C4.11332248 8.66868314 4.11332248 8.66868314 1 8 C0.67 5.36 0.34 2.72 0 0 Z " fill="#DAECFC" transform="translate(134,1240)"/>
<path d="M0 0 C0.33 0 0.66 0 1 0 C1.50938345 2.49840454 2.00763114 4.99823388 2.5 7.5 C2.64308594 8.19609375 2.78617188 8.8921875 2.93359375 9.609375 C3.88277373 14.49087203 4.13440046 19.02718299 4 24 C3.67 24 3.34 24 3 24 C0.49165777 15.97330486 -0.17440451 8.37141663 0 0 Z " fill="#C9E2FA" transform="translate(12,924)"/>
<path d="M0 0 C-0.33 0.99 -0.66 1.98 -1 3 C-1.66 3 -2.32 3 -3 3 C-3 4.32 -3 5.64 -3 7 C-6 8 -6 8 -8.1875 7.0625 C-8.785625 6.711875 -9.38375 6.36125 -10 6 C-8.71283353 4.99421411 -7.42011342 3.99553202 -6.125 3 C-5.40570312 2.443125 -4.68640625 1.88625 -3.9453125 1.3125 C-2 0 -2 0 0 0 Z M-8 8 C-7.34 8.33 -6.68 8.66 -6 9 C-7.98 9.99 -7.98 9.99 -10 11 C-9.34 10.01 -8.68 9.02 -8 8 Z " fill="#266CD1" transform="translate(888,924)"/>
<path d="M0 0 C8.44646925 6.15034169 8.44646925 6.15034169 12 10 C8.8784113 9.62043576 5.94707672 9.11821705 3 8 C1.07566765 5.20097113 0 3.41161998 0 0 Z " fill="#266BCE" transform="translate(704,917)"/>
<path d="M0 0 C2.50276394 3.03496087 3.91612312 5.93195283 5.25 9.625 C5.60578125 10.58664062 5.9615625 11.54828125 6.328125 12.5390625 C7 15 7 15 6 17 C5.66226563 16.37351562 5.32453125 15.74703125 4.9765625 15.1015625 C4.53054688 14.28429687 4.08453125 13.46703125 3.625 12.625 C3.18414063 11.81289063 2.74328125 11.00078125 2.2890625 10.1640625 C1.0556107 7.89185698 1.0556107 7.89185698 -1 6 C-0.67 5.34 -0.34 4.68 0 4 C0 2.68 0 1.36 0 0 Z " fill="#D3EAFC" transform="translate(931,751)"/>
<path d="M0 0 C5.40838443 3.56879789 10.74979781 7.20198139 16 11 C13 12 13 12 10.3125 10.6875 C9.549375 10.130625 8.78625 9.57375 8 9 C8 8.34 8 7.68 8 7 C5.66785852 5.79371992 3.50357861 4.8345262 1 4 C0.3125 1.9375 0.3125 1.9375 0 0 Z " fill="#D2EAFD" transform="translate(315,1434)"/>
<path d="M0 0 C0 3 0 3 -2.4375 5.5 C-3.283125 6.325 -4.12875 7.15 -5 8 C-5.33 8.99 -5.66 9.98 -6 11 C-7.9375 12.0625 -7.9375 12.0625 -10 13 C-10.66 13.66 -11.32 14.32 -12 15 C-12.66 14.34 -13.32 13.68 -14 13 C-13.49210938 12.56429687 -12.98421875 12.12859375 -12.4609375 11.6796875 C-8.13240118 7.93477405 -3.99693056 4.09685382 0 0 Z " fill="#2C6DCB" transform="translate(257,218)"/>
<path d="M0 0 C3.10742423 1.46818668 5.90471739 3.20025 8.75 5.125 C9.94882813 5.93324219 9.94882813 5.93324219 11.171875 6.7578125 C11.77515625 7.16773438 12.3784375 7.57765625 13 8 C9.25 9.125 9.25 9.125 7 8 C7 7.34 7 6.68 7 6 C6.34 6 5.68 6 5 6 C5 5.34 5 4.68 5 4 C3.68 4.33 2.36 4.66 1 5 C0.67 3.35 0.34 1.7 0 0 Z " fill="#276BCD" transform="translate(1256,149)"/>
<path d="M0 0 C1.27310312 0.93441535 2.543388 1.87267111 3.8125 2.8125 C4.52019531 3.33457031 5.22789062 3.85664062 5.95703125 4.39453125 C7.78531393 5.83128877 9.39896688 7.31815763 11 9 C7.43803486 9.19788695 4.85729372 9.2661295 2 7 C0.75 3.375 0.75 3.375 0 0 Z " fill="#DBECFC" transform="translate(296,1419)"/>
<path d="M0 0 C1.32 0.33 2.64 0.66 4 1 C0.7 3.97 -2.6 6.94 -6 10 C-6.33 8.68 -6.66 7.36 -7 6 C-6.01 5.67 -5.02 5.34 -4 5 C-3.67 4.34 -3.34 3.68 -3 3 C-1.6875 1.3125 -1.6875 1.3125 0 0 Z " fill="#2769CB" transform="translate(705,697)"/>
<path d="M0 0 C0.33 0 0.66 0 1 0 C1.69918305 2.58067563 2.38461049 5.16372847 3.0625 7.75 C3.26166016 8.47960937 3.46082031 9.20921875 3.66601562 9.9609375 C4.63744407 13.71031044 5.15449387 16.30274238 4 20 C2.05662363 17.08493545 1.72325333 16.17028308 1.4375 12.875 C1.43313101 9.22536034 1.43313101 9.22536034 0 8 C-0.14115161 5.32941149 -0.04247107 2.67567762 0 0 Z " fill="#3371CD" transform="translate(1569,594)"/>
<path d="M0 0 C0.66 0.33 1.32 0.66 2 1 C-0.31 6.61 -2.62 12.22 -5 18 C-6.10191901 13.59232396 -5.58706842 12.1077065 -4 8 C-3.34 8 -2.68 8 -2 8 C-2.04125 7.236875 -2.0825 6.47375 -2.125 5.6875 C-2 3 -2 3 0 0 Z " fill="#DEF0FE" transform="translate(65,488)"/>
<path d="M0 0 C3.52238047 1.56367357 6.27123994 3.69495889 9.25 6.125 C10.14203125 6.84945312 11.0340625 7.57390625 11.953125 8.3203125 C12.62859375 8.87460938 13.3040625 9.42890625 14 10 C13.01 10.495 13.01 10.495 12 11 C9.375 9.6875 9.375 9.6875 7 8 C7 7.34 7 6.68 7 6 C6.01 6 5.02 6 4 6 C4 5.34 4 4.68 4 4 C2.68 3.67 1.36 3.34 0 3 C0 2.01 0 1.02 0 0 Z " fill="#2B6ECB" transform="translate(1301,183)"/>
<path d="M0 0 C0.33 0 0.66 0 1 0 C1.02688151 1.64574566 1.04634123 3.29161413 1.0625 4.9375 C1.07410156 5.85402344 1.08570313 6.77054688 1.09765625 7.71484375 C1 10 1 10 0 11 C-0.2165625 12.7325 -0.2165625 12.7325 -0.4375 14.5 C-0.623125 15.655 -0.80875 16.81 -1 18 C-1.66 18.33 -2.32 18.66 -3 19 C-2.69127671 16.39533457 -2.37818277 13.79132309 -2.0625 11.1875 C-1.97548828 10.44951172 -1.88847656 9.71152344 -1.79882812 8.95117188 C-1.41783454 5.83266879 -0.99630626 2.98891878 0 0 Z " fill="#C1DCF9" transform="translate(660,773)"/>
<path d="M0 0 C0.99 0 1.98 0 3 0 C1.37621488 4.72373854 -1.10993018 8.94181834 -4 13 C-4.33 13 -4.66 13 -5 13 C-5.25 10.1875 -5.25 10.1875 -5 7 C-3.0625 5.375 -3.0625 5.375 -1 4 C-0.20376178 1.90584196 -0.20376178 1.90584196 0 0 Z " fill="#266ACD" transform="translate(678,727)"/>
<path d="M0 0 C0.66 0.33 1.32 0.66 2 1 C-0.90036358 5.12744049 -3.47061402 6.87986188 -8 9 C-9.81554159 10.56102491 -9.81554159 10.56102491 -11 12 C-11.99 11.67 -12.98 11.34 -14 11 C-9.38 7.37 -4.76 3.74 0 0 Z " fill="#D3E9FD" transform="translate(717,691)"/>
<path d="M0 0 C0.33 0 0.66 0 1 0 C1.64196266 3.68651822 2.15094565 7.25331341 2 11 C-0.4375 13.6875 -0.4375 13.6875 -3 15 C-2.35812082 9.86496656 -1.31727753 5.0056546 0 0 Z " fill="#3876D1" transform="translate(34,579)"/>
<path d="M0 0 C2.25426497 2.92647049 4.30021193 5.92485561 6.25 9.0625 C6.79140625 9.91972656 7.3328125 10.77695312 7.890625 11.66015625 C9 14 9 14 8 17 C7.34 17 6.68 17 6 17 C5.81824219 16.39671875 5.63648438 15.7934375 5.44921875 15.171875 C4.0881357 10.84432889 2.80078442 7.60100854 0 4 C0 2.68 0 1.36 0 0 Z " fill="#2E70CE" transform="translate(1493,409)"/>
<path d="M0 0 C0.99 0 1.98 0 3 0 C1.62712658 3.69876091 -0.06355453 6.9514476 -2.125 10.3125 C-2.66382812 11.19550781 -3.20265625 12.07851563 -3.7578125 12.98828125 C-4.37269531 13.98408203 -4.37269531 13.98408203 -5 15 C-5.83583327 12.62392051 -6.1842383 11.45550373 -5.22265625 9.078125 C-3.61132812 6.5390625 -3.61132812 6.5390625 -2 4 C-1.34 4 -0.68 4 0 4 C0 2.68 0 1.36 0 0 Z " fill="#D5EBFC" transform="translate(127,369)"/>
<path d="M0 0 C0.99 0.66 1.98 1.32 3 2 C-0.63 4.31 -4.26 6.62 -8 9 C-8 6 -8 6 -6.625 4.4375 C-6.08875 3.963125 -5.5525 3.48875 -5 3 C-4.34 2.34 -3.68 1.68 -3 1 C-2.01 0.67 -1.02 0.34 0 0 Z " fill="#DDEDFC" transform="translate(351,140)"/>
<path d="M0 0 C0 0.66 0 1.32 0 2 C-0.99 2 -1.98 2 -3 2 C-3 2.66 -3 3.32 -3 4 C-3.99 4 -4.98 4 -6 4 C-6.33 5.32 -6.66 6.64 -7 8 C-9.31 8.33 -11.62 8.66 -14 9 C-10.73787201 5.33010602 -5.2007339 0 0 0 Z " fill="#3072CD" transform="translate(374,129)"/>
<path d="M0 0 C2.31 0.33 4.62 0.66 7 1 C3.59780735 3.74792483 -0.48464588 7 -5 7 C-5 6.34 -5 5.68 -5 5 C-4.01 5 -3.02 5 -2 5 C-1.34 3.35 -0.68 1.7 0 0 Z " fill="#DCECFC" transform="translate(428,92)"/>
<path d="M0 0 C-1.74294678 0.86846831 -3.49468663 1.71930627 -5.25 2.5625 C-6.22453125 3.03816406 -7.1990625 3.51382813 -8.203125 4.00390625 C-11.09856297 5.03510273 -12.19966161 5.11346788 -15 4 C-13.68 2.68 -12.36 1.36 -11 0 C-11 0.66 -11 1.32 -11 2 C-9.9275 1.484375 -8.855 0.96875 -7.75 0.4375 C-4.74745101 -1.00603317 -3.16753501 -1.05818094 0 0 Z " fill="#E0EFFD" transform="translate(476,74)"/>
<path d="M0 0 C2.97 0.495 2.97 0.495 6 1 C3.525 4.465 3.525 4.465 1 8 C0.67 6.68 0.34 5.36 0 4 C-0.66 3.67 -1.32 3.34 -2 3 C-1.34 2.01 -0.68 1.02 0 0 Z " fill="#206AD0" transform="translate(1403,1314)"/>
<path d="M0 0 C0.66 0.33 1.32 0.66 2 1 C0.85821872 2.66944521 -0.28852905 4.3354948 -1.4375 6 C-2.07558594 6.928125 -2.71367188 7.85625 -3.37109375 8.8125 C-3.90863281 9.534375 -4.44617187 10.25625 -5 11 C-5.33 11 -5.66 11 -6 11 C-5.67 8.69 -5.34 6.38 -5 4 C-3.35 3.34 -1.7 2.68 0 2 C0 1.34 0 0.68 0 0 Z " fill="#2D70CC" transform="translate(1473,1225)"/>
<path d="M0 0 C2.67376957 2.67376957 2.63285413 4.66345999 3.1875 8.375 C3.36667969 9.51710938 3.54585937 10.65921875 3.73046875 11.8359375 C3.96850395 14.6302638 3.90712129 16.38800538 3 19 C2 18 2 18 1.90234375 15.71484375 C1.91974609 14.34005859 1.91974609 14.34005859 1.9375 12.9375 C1.94652344 12.01839844 1.95554687 11.09929688 1.96484375 10.15234375 C1.97644531 9.44207031 1.98804688 8.73179687 2 8 C1.34 8 0.68 8 0 8 C0 5.36 0 2.72 0 0 Z " fill="#3B77CF" transform="translate(1581,648)"/>
<path d="M0 0 C0.33 0 0.66 0 1 0 C1 1.65 1 3.3 1 5 C0.34 5 -0.32 5 -1 5 C-1 5.99 -1 6.98 -1 8 C-1.66 8 -2.32 8 -3 8 C-3.66 9.98 -4.32 11.96 -5 14 C-5.99 14 -6.98 14 -8 14 C-5.36 9.38 -2.72 4.76 0 0 Z " fill="#2D6FCD" transform="translate(108,406)"/>
<path d="M0 0 C1.48280196 0.78483659 2.9611498 1.57809334 4.4375 2.375 C5.67306641 3.03628906 5.67306641 3.03628906 6.93359375 3.7109375 C9 5 9 5 10 7 C9.34 7 8.68 7 8 7 C8 7.99 8 8.98 8 10 C6.68 9.67 5.36 9.34 4 9 C4.66 9 5.32 9 6 9 C6 7.68 6 6.36 6 5 C5.01 5 4.02 5 3 5 C3 4.34 3 3.68 3 3 C2.01 2.67 1.02 2.34 0 2 C0 1.34 0 0.68 0 0 Z " fill="#286ECF" transform="translate(1206,116)"/>
<path d="M0 0 C1.32 0 2.64 0 4 0 C4.33 1.98 4.66 3.96 5 6 C1.7 5.01 -1.6 4.02 -5 3 C-3.68 2.34 -2.36 1.68 -1 1 C-0.67 0.67 -0.34 0.34 0 0 Z " fill="#256DD4" transform="translate(506,1538)"/>
<path d="M0 0 C0 0.66 0 1.32 0 2 C-0.99 2.33 -1.98 2.66 -3 3 C-3.99 4.485 -3.99 4.485 -5 6 C-8.125 6.6875 -8.125 6.6875 -11 7 C-11 7.66 -11 8.32 -11 9 C-12.32 8.67 -13.64 8.34 -15 8 C-14.31292969 7.59007812 -13.62585937 7.18015625 -12.91796875 6.7578125 C-12.01691406 6.21898437 -11.11585937 5.68015625 -10.1875 5.125 C-9.29417969 4.59132813 -8.40085937 4.05765625 -7.48046875 3.5078125 C-1.70984456 0 -1.70984456 0 0 0 Z " fill="#D0E6FC" transform="translate(1214,1483)"/>
<path d="M0 0 C4.28477792 2.30718811 7.72291137 4.32966073 11 8 C4.66666667 7.51282051 4.66666667 7.51282051 1.5625 5.125 C0 3 0 3 0 0 Z " fill="#DDEEFD" transform="translate(877,688)"/>
<path d="M0 0 C0.99 0.33 1.98 0.66 3 1 C1.85793642 2.50287218 0.71125043 4.00223284 -0.4375 5.5 C-1.39462891 6.75296875 -1.39462891 6.75296875 -2.37109375 8.03125 C-2.90863281 8.6809375 -3.44617188 9.330625 -4 10 C-4.33 10 -4.66 10 -5 10 C-5 7.36 -5 4.72 -5 2 C-3.02 2.99 -3.02 2.99 -1 4 C-0.67 2.68 -0.34 1.36 0 0 Z " fill="#E3F1FD" transform="translate(165,316)"/>
<path d="M0 0 C-1.95519384 1.17192047 -3.9142539 2.3373929 -5.875 3.5 C-6.96554687 4.1496875 -8.05609375 4.799375 -9.1796875 5.46875 C-12 7 -12 7 -14 7 C-14.33 6.01 -14.66 5.02 -15 4 C-13.35 4 -11.7 4 -10 4 C-10 3.34 -10 2.68 -10 2 C-8.68 2 -7.36 2 -6 2 C-6 1.34 -6 0.68 -6 0 C-3 -1 -3 -1 0 0 Z " fill="#DCF0FE" transform="translate(390,119)"/>
<path d="M0 0 C0 0.66 0 1.32 0 2 C-0.99 2.33 -1.98 2.66 -3 3 C-3.33 3.99 -3.66 4.98 -4 6 C-5.98 6 -7.96 6 -10 6 C-10 6.66 -10 7.32 -10 8 C-11.32 7.67 -12.64 7.34 -14 7 C-12.04480616 5.82807953 -10.0857461 4.6626071 -8.125 3.5 C-7.03445313 2.8503125 -5.94390625 2.200625 -4.8203125 1.53125 C-2 0 -2 0 0 0 Z " fill="#3373CE" transform="translate(421,101)"/>
<path d="M0 0 C3.55780196 0.60990891 6.6828589 1.5783681 10 3 C10 3.66 10 4.32 10 5 C11.2065625 5.185625 11.2065625 5.185625 12.4375 5.375 C13.7059375 5.684375 13.7059375 5.684375 15 6 C15.33 6.66 15.66 7.32 16 8 C10.04675579 6.60668753 5.24258516 4.11464243 0 1 C0 0.67 0 0.34 0 0 Z " fill="#3374CB" transform="translate(438,1511)"/>
<path d="M0 0 C0 3.96130371 -1.34877125 4.82914401 -4 7.6875 C-4.7425 8.49574219 -5.485 9.30398438 -6.25 10.13671875 C-6.8275 10.75160156 -7.405 11.36648438 -8 12 C-8.99 11.67 -9.98 11.34 -11 11 C-7.37 7.37 -3.74 3.74 0 0 Z " fill="#C7E1FB" transform="translate(1387,1340)"/>
<path d="M0 0 C-6.28453206 3.32797915 -10.88658735 4.45164525 -18 4 C-14.72779658 2.19001308 -11.49502953 1.2241782 -7.875 0.3125 C-6.82054687 0.04050781 -5.76609375 -0.23148438 -4.6796875 -0.51171875 C-2 -1 -2 -1 0 0 Z " fill="#C4E0FA" transform="translate(1004,1573)"/>
<path d="M0 0 C0.33 0.66 0.66 1.32 1 2 C-0.43133857 5.64340727 -2.8050406 8.78072622 -5 12 C-5.99 11.67 -6.98 11.34 -8 11 C-5.36 7.37 -2.72 3.74 0 0 Z " fill="#DAEEFC" transform="translate(1447,1266)"/>
<path d="M0 0 C0.66 0 1.32 0 2 0 C2 0.66 2 1.32 2 2 C2.99 2.33 3.98 2.66 5 3 C7.95940617 6.07322948 8.52517335 8.82152545 9 13 C4.76568424 9.39299028 2.5307901 4.85413839 0 0 Z " fill="#3474CC" transform="translate(125,1225)"/>
<path d="M0 0 C0.66 0 1.32 0 2 0 C3.54296875 2.1171875 3.54296875 2.1171875 5.1875 4.875 C5.73792969 5.77992187 6.28835937 6.68484375 6.85546875 7.6171875 C7.23316406 8.40351562 7.61085938 9.18984375 8 10 C7.67 10.66 7.34 11.32 7 12 C4 10 4 10 3.3125 7.375 C3.209375 6.59125 3.10625 5.8075 3 5 C2.01 4.67 1.02 4.34 0 4 C0 2.68 0 1.36 0 0 Z " fill="#DBEFFD" transform="translate(105,1194)"/>
<path d="M0 0 C1.04449911 3.13349732 0.93423645 3.98968256 0 7 C-0.66 7 -1.32 7 -2 7 C-1.938125 8.1446875 -1.938125 8.1446875 -1.875 9.3125 C-2 12 -2 12 -4 15 C-4.66 15 -5.32 15 -6 15 C-4.36041242 9.76727367 -2.61047965 4.84803364 0 0 Z " fill="#3573CB" transform="translate(79,461)"/>
<path d="M0 0 C2.42102911 1.18098981 3.82068009 2.2331559 5.5625 4.25 C-0.4921875 4.4453125 -0.4921875 4.4453125 -2.4375 4.25 C-3.0975 3.59 -3.7575 2.93 -4.4375 2.25 C-4.4375 1.59 -4.4375 0.93 -4.4375 0.25 C-2.4375 -0.75 -2.4375 -0.75 0 0 Z " fill="#246DD4" transform="translate(1242.4375,138.75)"/>
<path d="M0 0 C0.33 0.99 0.66 1.98 1 3 C0.34 3 -0.32 3 -1 3 C-1 3.66 -1 4.32 -1 5 C-0.34 5 0.32 5 1 5 C0.67 5.66 0.34 6.32 0 7 C-1.33597652 6.19185349 -2.668725 5.37836819 -4 4.5625 C-4.7425 4.11003906 -5.485 3.65757813 -6.25 3.19140625 C-6.8275 2.79824219 -7.405 2.40507813 -8 2 C-8 1.67 -8 1.34 -8 1 C-2.25 0 -2.25 0 0 0 Z " fill="#DEEEFC" transform="translate(1228,123)"/>
<path d="M0 0 C2.97 0 5.94 0 9 0 C9 0.66 9 1.32 9 2 C11.31 2.33 13.62 2.66 16 3 C16 3.66 16 4.32 16 5 C10.72 3.68 5.44 2.36 0 1 C0 0.67 0 0.34 0 0 Z " fill="#C7E0F9" transform="translate(1005,31)"/>
<path d="M0 0 C1.65 0.33 3.3 0.66 5 1 C2.2180632 4.27286682 -1.27954067 5.96427697 -5 8 C-5 7.01 -5 6.02 -5 5 C-4.01 5 -3.02 5 -2 5 C-2 4.34 -2 3.68 -2 3 C-1.34 3 -0.68 3 0 3 C0 2.01 0 1.02 0 0 Z " fill="#276DCF" transform="translate(1210,1480)"/>
<path d="M0 0 C0.99 0 1.98 0 3 0 C3.33 0.99 3.66 1.98 4 3 C2.68 4.32 1.36 5.64 0 7 C-0.66 6.67 -1.32 6.34 -2 6 C-1.125 1.125 -1.125 1.125 0 0 Z " fill="#1B69D3" transform="translate(1429,1283)"/>
<path d="M0 0 C0.99 0.33 1.98 0.66 3 1 C1.02 4.63 -0.96 8.26 -3 12 C-3.33 12 -3.66 12 -4 12 C-3.74438677 9.6568787 -3.40729228 7.32156597 -3 5 C-2.34 4.67 -1.68 4.34 -1 4 C-0.34786708 1.97536745 -0.34786708 1.97536745 0 0 Z " fill="#2E6FCD" transform="translate(1489,1196)"/>
<path d="M0 0 C2.74792483 3.40219265 6 7.48464588 6 12 C4.125 11.875 4.125 11.875 2 11 C0.30273706 7.26602153 -0.23990744 4.07842654 0 0 Z " fill="#D0E7FB" transform="translate(81,1146)"/>
<path d="M0 0 C0.33 0.66 0.66 1.32 1 2 C1.66 2 2.32 2 3 2 C1.84414715 5.91211733 0.64465038 8.8745041 -2 12 C-2 10.02 -2 8.04 -2 6 C-1.34 6 -0.68 6 0 6 C-0.2784375 4.7934375 -0.2784375 4.7934375 -0.5625 3.5625 C-0.706875 2.716875 -0.85125 1.87125 -1 1 C-0.67 0.67 -0.34 0.34 0 0 Z " fill="#226ACF" transform="translate(1517,1140)"/>
<path d="M0 0 C1.11375 0.598125 2.2275 1.19625 3.375 1.8125 C4.00148438 2.14894531 4.62796875 2.48539063 5.2734375 2.83203125 C7 4 7 4 9 7 C7.02 7 5.04 7 3 7 C2.67 5.35 2.34 3.7 2 2 C1.34 2 0.68 2 0 2 C0 1.34 0 0.68 0 0 Z " fill="#2B6DCB" transform="translate(1290,174)"/>
<path d="M0 0 C0 0.99 0 1.98 0 3 C0.66 3 1.32 3 2 3 C2 3.66 2 4.32 2 5 C-1.3 4.01 -4.6 3.02 -8 2 C-4.77208445 -0.1519437 -3.71599191 -0.20086443 0 0 Z " fill="#276BCE" transform="translate(533,1548)"/>
<path d="M0 0 C3.91211733 1.15585285 6.8745041 2.35534962 10 5 C6.93109813 6.53445094 4.29905734 5.54984289 1 5 C1.33 4.01 1.66 3.02 2 2 C1.34 2 0.68 2 0 2 C0 1.34 0 0.68 0 0 Z " fill="#DCEDFD" transform="translate(440,1513)"/>
<path d="M0 0 C0.66 0.33 1.32 0.66 2 1 C0.78575607 2.49144105 -0.44706045 3.96777403 -1.6875 5.4375 C-2.37199219 6.26121094 -3.05648438 7.08492187 -3.76171875 7.93359375 C-6.24022612 10.22177944 -7.69136813 10.68130516 -11 11 C-7.33333333 7.33333333 -3.66666667 3.66666667 0 0 Z " fill="#CAE2FA" transform="translate(1334,1392)"/>
<path d="M0 0 C0.33 0 0.66 0 1 0 C1.2358396 5.77807024 0.86783046 10.51324804 -1 16 C-1.33 16 -1.66 16 -2 16 C-2 13.03 -2 10.06 -2 7 C-1.34 7 -0.68 7 0 7 C0 4.69 0 2.38 0 0 Z " fill="#D1E8F9" transform="translate(7,712)"/>
<path d="M0 0 C4.21912747 0.4794463 6.79663178 1.16625119 10 4 C8.02 4.33 6.04 4.66 4 5 C4 4.34 4 3.68 4 3 C2.68 2.67 1.36 2.34 0 2 C0 1.34 0 0.68 0 0 Z " fill="#E3F2FD" transform="translate(844,673)"/>
<path d="M0 0 C5.61 0.66 11.22 1.32 17 2 C16.34 2.66 15.68 3.32 15 4 C12.375 3.6875 12.375 3.6875 9 3 C7.56317611 2.84764939 6.12563576 2.70192429 4.6875 2.5625 C3.470625 2.376875 2.25375 2.19125 1 2 C0.67 1.34 0.34 0.68 0 0 Z " fill="#E0F1FE" transform="translate(817,667)"/>
<path d="M0 0 C1.89668064 2.84502097 3.23263478 5.57299885 4.625 8.6875 C5.07101562 9.68136719 5.51703125 10.67523438 5.9765625 11.69921875 C6.31429688 12.45847656 6.65203125 13.21773438 7 14 C6.01 14.495 6.01 14.495 5 15 C1.82017764 10.08572909 0 5.90403766 0 0 Z " fill="#3572CD" transform="translate(1515,450)"/>
<path d="M0 0 C1.04449911 3.13349732 0.93423645 3.98968256 0 7 C0.66 7 1.32 7 2 7 C2.33 8.98 2.66 10.96 3 13 C-0.09592835 9.4912812 -1.74194623 6.50802601 -3 2 C-2.01 1.34 -1.02 0.68 0 0 Z " fill="#E1EEFC" transform="translate(1501,414)"/>
<path d="M0 0 C4.441725 1.39597071 7.01540848 3.43507124 10 7 C10.8125 9.8125 10.8125 9.8125 11 12 C7.08060535 8.19588166 3.50897269 4.18423892 0 0 Z " fill="#DAF0FC" transform="translate(1360,234)"/>
<path d="M0 0 C-3.85623679 3.97674419 -3.85623679 3.97674419 -7.11328125 4.04296875 C-9.08863015 3.7798228 -11.04718291 3.39718314 -13 3 C-10.72299943 0.72299943 -9.58686902 0.47898308 -6.5 -0.1875 C-5.7059375 -0.36667969 -4.911875 -0.54585937 -4.09375 -0.73046875 C-2 -1 -2 -1 0 0 Z " fill="#246CD3" transform="translate(505,64)"/>
<path d="M0 0 C-3.01490557 2.00993705 -5.2149927 2.72623341 -8.6875 3.625 C-10.17830078 4.01558594 -10.17830078 4.01558594 -11.69921875 4.4140625 C-12.45847656 4.60742188 -13.21773437 4.80078125 -14 5 C-14 4.34 -14 3.68 -14 3 C-9.03006806 0.56574762 -5.65394631 -0.34615998 0 0 Z " fill="#DEF0FE" transform="translate(548,45)"/>
<path d="M0 0 C0.12375 0.61875 0.2475 1.2375 0.375 1.875 C0.87197356 4.19120832 0.87197356 4.19120832 3 6 C2.01 6.495 2.01 6.495 1 7 C-1.31 5.35 -3.62 3.7 -6 2 C-2.25 0 -2.25 0 0 0 Z " fill="#2C70D0" transform="translate(348,1452)"/>
<path d="M0 0 C0.66 0.33 1.32 0.66 2 1 C0 4 0 4 -3 5 C-4.20882096 7.00016466 -4.20882096 7.00016466 -5 9 C-6.32 8.34 -7.64 7.68 -9 7 C-6.03 4.69 -3.06 2.38 0 0 Z " fill="#D2E7FB" transform="translate(1273,1442)"/>
<path d="M0 0 C0.33 0.99 0.66 1.98 1 3 C-0.9375 6.1875 -0.9375 6.1875 -3 9 C-3.99 8.67 -4.98 8.34 -6 8 C-4.02 5.36 -2.04 2.72 0 0 Z " fill="#DCEDFB" transform="translate(1394,1332)"/>
<path d="M0 0 C0.66 0 1.32 0 2 0 C1.33501617 4.38889325 -0.18757677 7.9811485 -2 12 C-2.33 12 -2.66 12 -3 12 C-2.88601335 10.37419034 -2.75844341 8.74932843 -2.625 7.125 C-2.55539062 6.22007813 -2.48578125 5.31515625 -2.4140625 4.3828125 C-2 2 -2 2 0 0 Z " fill="#286BCB" transform="translate(1525,1126)"/>
<path d="M0 0 C1.76337678 2.64506516 2.6560851 4.59213967 3.625 7.5625 C3.88539062 8.34753906 4.14578125 9.13257813 4.4140625 9.94140625 C5 12 5 12 5 14 C4.34 14 3.68 14 3 14 C0.96006486 9.07015675 -0.40652968 5.42039575 0 0 Z " fill="#CEE6FB" transform="translate(45,1058)"/>
<path d="M0 0 C1.10176129 3.35216734 0.89303058 5.75121078 0.1875 9.1875 C0.01605469 10.06792969 -0.15539063 10.94835937 -0.33203125 11.85546875 C-0.55246094 12.56316406 -0.77289062 13.27085937 -1 14 C-1.99 14.495 -1.99 14.495 -3 15 C-2.44854729 9.76119922 -1.57077907 5.02649303 0 0 Z " fill="#C2DDF8" transform="translate(1571,1001)"/>
<path d="M0 0 C4.97306516 0.49730652 8.63799813 1.55302334 13 4 C13 4.66 13 5.32 13 6 C3.40546697 3.10933941 3.40546697 3.10933941 0 0 Z " fill="#CEE7FC" transform="translate(736,938)"/>
<path d="M0 0 C1.11346788 2.80033839 1.03510273 3.90143703 0.00390625 6.796875 C-0.47175781 7.77140625 -0.94742188 8.7459375 -1.4375 9.75 C-1.91058594 10.73484375 -2.38367188 11.7196875 -2.87109375 12.734375 C-3.24363281 13.48203125 -3.61617188 14.2296875 -4 15 C-4.33 15 -4.66 15 -5 15 C-5.31245735 10.41729218 -4.92744156 8.49041109 -2 5 C-1.28837557 3.35202764 -0.60968047 1.68834592 0 0 Z " fill="#D8EEFE" transform="translate(80,455)"/>
<path d="M0 0 C0.66 0.33 1.32 0.66 2 1 C0.02 4.63 -1.96 8.26 -4 12 C-4.33 12 -4.66 12 -5 12 C-5 10.35 -5 8.7 -5 7 C-4.34 7 -3.68 7 -3 7 C-2.87625 6.401875 -2.7525 5.80375 -2.625 5.1875 C-2 3 -2 3 0 0 Z " fill="#D8EBFC" transform="translate(110,399)"/>
<path d="M0 0 C1.5625 1.125 1.5625 1.125 3 3 C2.6875 6.1875 2.6875 6.1875 2 9 C-0.25245881 6.31158141 -1.88213958 4.35358125 -3 1 C-2.01 0.67 -1.02 0.34 0 0 Z " fill="#E1EDFB" transform="translate(1483,385)"/>
<path d="M0 0 C2.6486859 3.19668988 4.93992341 6.39486597 7 10 C2.37837838 8.54054054 2.37837838 8.54054054 0.6875 6.125 C0 4 0 4 0 0 Z " fill="#2D6ECC" transform="translate(1450,341)"/>
<path d="M0 0 C2.96404505 2.80804268 5.44499019 5.18315774 7 9 C5.35 9 3.7 9 2 9 C1.34 6.03 0.68 3.06 0 0 Z " fill="#3071D0" transform="translate(1418,299)"/>
<path d="M0 0 C-5.00932754 3.00559652 -8.32723489 3.29341888 -14 3 C-11.87033995 0.87033995 -10.95931796 0.52375338 -8.125 -0.1875 C-7.44695313 -0.36667969 -6.76890625 -0.54585937 -6.0703125 -0.73046875 C-3.77181444 -1.02970718 -2.19449036 -0.69377386 0 0 Z " fill="#3777CE" transform="translate(606,30)"/>
<path d="M0 0 C1.8871875 0.061875 1.8871875 0.061875 3.8125 0.125 C0.8125 2.125 0.8125 2.125 -1.1875 2.125 C-1.5175 3.115 -1.8475 4.105 -2.1875 5.125 C-2.1875 4.465 -2.1875 3.805 -2.1875 3.125 C-3.8375 2.795 -5.4875 2.465 -7.1875 2.125 C-4.09861478 0.06574319 -3.47814073 -0.1140374 0 0 Z " fill="#E1EFFC" transform="translate(1013.1875,1569.875)"/>
<path d="M0 0 C1.65 0 3.3 0 5 0 C2.45217026 2.97246802 -0.45340883 4.41535288 -4 6 C-4.66 6 -5.32 6 -6 6 C-6 5.34 -6 4.68 -6 4 C-5.01 4 -4.02 4 -3 4 C-3 3.34 -3 2.68 -3 2 C-2.01 2 -1.02 2 0 2 C0 1.34 0 0.68 0 0 Z " fill="#296CCB" transform="translate(1164,1507)"/>
<path d="M0 0 C3.3 1.98 6.6 3.96 10 6 C9.67 6.66 9.34 7.32 9 8 C8.401875 7.690625 7.80375 7.38125 7.1875 7.0625 C4.91043228 5.89790296 4.91043228 5.89790296 2 5 C1.34 3.35 0.68 1.7 0 0 Z " fill="#DDF0FC" transform="translate(342,1454)"/>
<path d="M0 0 C0.66 0 1.32 0 2 0 C2.33 1.32 2.66 2.64 3 4 C2.34 4 1.68 4 1 4 C1 4.66 1 5.32 1 6 C-0.375 7.625 -0.375 7.625 -2 9 C-2.66 9 -3.32 9 -4 9 C-2.80100302 5.9168649 -1.52299523 2.93720508 0 0 Z " fill="#DAEAFD" transform="translate(1499,1183)"/>
<path d="M0 0 C0 0.33 0 0.66 0 1 C-1.76949612 1.50471197 -3.54065223 2.00360685 -5.3125 2.5 C-6.79169922 2.91765625 -6.79169922 2.91765625 -8.30078125 3.34375 C-11 4 -11 4 -14 4 C-14 3.34 -14 2.68 -14 2 C-9.35150485 -0.3992233 -5.08913926 -0.19957409 0 0 Z " fill="#2C6BC8" transform="translate(766,669)"/>
<path d="M0 0 C2.05883923 4.11767846 2.96165128 7.54993405 4 12 C2.68 11.34 1.36 10.68 0 10 C0 6.7 0 3.4 0 0 Z " fill="#3071D0" transform="translate(1561,566)"/>
<path d="M0 0 C0.33 0 0.66 0 1 0 C1.49230769 6.4 1.49230769 6.4 -1 9.4375 C-1.99 10.2109375 -1.99 10.2109375 -3 11 C-3.33 10.34 -3.66 9.68 -4 9 C-3.22265625 6.8359375 -3.22265625 6.8359375 -2.0625 4.375 C-1.68222656 3.55773437 -1.30195312 2.74046875 -0.91015625 1.8984375 C-0.60980469 1.27195312 -0.30945313 0.64546875 0 0 Z " fill="#3372D2" transform="translate(84,450)"/>
<path d="M0 0 C0.66 0 1.32 0 2 0 C6.57142857 7.28571429 6.57142857 7.28571429 6 12 C3.25207517 8.59780735 0 4.51535412 0 0 Z " fill="#D7ECFC" transform="translate(1505,429)"/>
<path d="M0 0 C0.66 0.33 1.32 0.66 2 1 C-0.475 5.455 -0.475 5.455 -3 10 C-3.66 8.68 -4.32 7.36 -5 6 C-3.67172689 3.14421282 -2.85356058 1.42678029 0 0 Z " fill="#DBEBFC" transform="translate(119,384)"/>
<path d="M0 0 C2.97 0.33 5.94 0.66 9 1 C8.01 2.32 7.02 3.64 6 5 C5.01 4.67 4.02 4.34 3 4 C3 3.34 3 2.68 3 2 C2.01 1.67 1.02 1.34 0 1 C0 0.67 0 0.34 0 0 Z " fill="#DCEBFB" transform="translate(1350,225)"/>
<path d="M0 0 C4.50884026 2.31883213 6.93906776 5.06451569 10 9 C6.66272214 7.82744291 4.22562513 6.81131596 2 4 C2 3.34 2 2.68 2 2 C1.34 2 0.68 2 0 2 C0 1.34 0 0.68 0 0 Z " fill="#2B6DC9" transform="translate(1338,215)"/>
<path d="M0 0 C3.96 1.98 3.96 1.98 8 4 C7.01 4.33 6.02 4.66 5 5 C4.67 5.66 4.34 6.32 4 7 C3.01 6.67 2.02 6.34 1 6 C1 5.01 1 4.02 1 3 C0.67 2.01 0.34 1.02 0 0 Z " fill="#256DD0" transform="translate(1185,104)"/>
<path d="M0 0 C-0.625 1.875 -0.625 1.875 -2 4 C-5.81058817 5.73961634 -8.03483443 6.19298271 -12 5 C-10.37750059 4.16180842 -8.75191503 3.3295884 -7.125 2.5 C-6.22007812 2.0359375 -5.31515625 1.571875 -4.3828125 1.09375 C-2 0 -2 0 0 0 Z " fill="#3E7BCE" transform="translate(464,79)"/>
<path d="M0 0 C0.33 0.66 0.66 1.32 1 2 C-2.17320782 5.53586014 -4.16743695 7.58578031 -9 8 C-6.14723863 5.06799526 -3.34920216 2.35684596 0 0 Z " fill="#D5EDFD" transform="translate(1284,1434)"/>
<path d="M0 0 C1.32 0.33 2.64 0.66 4 1 C4 1.99 4 2.98 4 4 C4.66 4 5.32 4 6 4 C6.33 5.32 6.66 6.64 7 8 C6.01 8.495 6.01 8.495 5 9 C4.16094435 7.87926138 3.32892169 6.75325453 2.5 5.625 C2.0359375 4.99851562 1.571875 4.37203125 1.09375 3.7265625 C0 2 0 2 0 0 Z " fill="#2C72CE" transform="translate(151,1263)"/>
<path d="M0 0 C0.66 0 1.32 0 2 0 C2 1.32 2 2.64 2 4 C2.99 4.33 3.98 4.66 5 5 C5.33 7.31 5.66 9.62 6 12 C3.25207517 8.59780735 0 4.51535412 0 0 Z " fill="#2A6CCA" transform="translate(83,1148)"/>
<path d="M0 0 C0.66 0 1.32 0 2 0 C2.33 2.31 2.66 4.62 3 7 C2.01 7.66 1.02 8.32 0 9 C0 6.03 0 3.06 0 0 Z " fill="#E8F5FD" transform="translate(1595,856)"/>
<path d="M0 0 C-0.33 1.32 -0.66 2.64 -1 4 C-3.31 4.33 -5.62 4.66 -8 5 C-3.16129032 0 -3.16129032 0 0 0 Z " fill="#DCEEFC" transform="translate(727,686)"/>
<path d="M0 0 C2.40804568 2.40804568 3.00768759 4.42203775 4.125 7.625 C4.47820312 8.62789063 4.83140625 9.63078125 5.1953125 10.6640625 C5.46085937 11.43492187 5.72640625 12.20578125 6 13 C5.34 13 4.68 13 4 13 C3.32404685 11.58774074 2.65959941 10.16997095 2 8.75 C1.62875 7.96109375 1.2575 7.1721875 0.875 6.359375 C0 4 0 4 0 0 Z " fill="#3D78CC" transform="translate(1533,490)"/>
<path d="M0 0 C1.00516105 4.02064419 1.08769462 4.59574601 -0.375 8.125 C-0.65085937 8.80820312 -0.92671875 9.49140625 -1.2109375 10.1953125 C-1.77237078 11.47938266 -2.37325547 12.74651095 -3 14 C-3.66 13.67 -4.32 13.34 -5 13 C-3.35 8.71 -1.7 4.42 0 0 Z " fill="#437BCE" transform="translate(66,489)"/>
<path d="M0 0 C1.32 0 2.64 0 4 0 C4 0.66 4 1.32 4 2 C6.31 2 8.62 2 11 2 C10.67 2.99 10.34 3.98 10 5 C8.51800098 4.55090939 7.03944764 4.09043436 5.5625 3.625 C4.73878906 3.36976562 3.91507812 3.11453125 3.06640625 2.8515625 C1 2 1 2 0 0 Z " fill="#3272CF" transform="translate(481,1531)"/>
<path d="M0 0 C0.66 0.33 1.32 0.66 2 1 C-1.63 2.98 -5.26 4.96 -9 7 C-9.66 6.34 -10.32 5.68 -11 5 C-9.21289414 4.13633178 -7.4201535 3.28431406 -5.625 2.4375 C-4.62726563 1.96183594 -3.62953125 1.48617188 -2.6015625 0.99609375 C-1.74304687 0.66738281 -0.88453125 0.33867188 0 0 Z " fill="#C4DEFA" transform="translate(1131,1526)"/>
<path d="M0 0 C0.66 0 1.32 0 2 0 C2 0.66 2 1.32 2 2 C2.66 2.33 3.32 2.66 4 3 C2.68 3.99 1.36 4.98 0 6 C-0.66 5.67 -1.32 5.34 -2 5 C-1.125 1.125 -1.125 1.125 0 0 Z " fill="#1867D3" transform="translate(1314,1404)"/>
<path d="M0 0 C0.66 0.33 1.32 0.66 2 1 C0.55609075 4.80666984 -1.34952803 6.26602582 -5 8 C-5.66 7.67 -6.32 7.34 -7 7 C-4.69 4.69 -2.38 2.38 0 0 Z " fill="#CBE3FC" transform="translate(1347,1380)"/>
<path d="M0 0 C0.33 1.32 0.66 2.64 1 4 C-1.25 6.75 -1.25 6.75 -4 9 C-4.99 9 -5.98 9 -7 9 C-4.69 6.03 -2.38 3.06 0 0 Z " fill="#C6E0FA" transform="translate(1428,1291)"/>
<path d="M0 0 C0.99 0 1.98 0 3 0 C1.8141763 3.37503669 0.72426311 5.64722731 -2 8 C-2.33 6.02 -2.66 4.04 -3 2 C-2.01 2 -1.02 2 0 2 C0 1.34 0 0.68 0 0 Z " fill="#276FD0" transform="translate(1445,1264)"/>
<path d="M0 0 C3.09423168 3.09423168 3.93706005 6.5523812 4.125 10.875 C4.08375 11.57625 4.0425 12.2775 4 13 C3.67 12.01 3.34 11.02 3 10 C2.34 10 1.68 10 1 10 C0.67 6.7 0.34 3.4 0 0 Z " fill="#296AC9" transform="translate(1546,523)"/>
<path d="M0 0 C0.33 0.99 0.66 1.98 1 3 C-1.39509338 5.89932357 -3.31245243 6.50168276 -7 7 C-4.78071806 4.09197539 -3.07030857 2.04687238 0 0 Z " fill="#2F74D0" transform="translate(265,211)"/>
<path d="M0 0 C4.29 1.32 8.58 2.64 13 4 C8.33367936 5.55544021 4.53441459 3.51147153 0 2 C0 1.34 0 0.68 0 0 Z " fill="#3B77CD" transform="translate(1032,39)"/>
<path d="M0 0 C4.12751449 0.60698743 7.3321148 2.03810791 11 4 C10.34 4.66 9.68 5.32 9 6 C6.03 4.35 3.06 2.7 0 1 C0 0.67 0 0.34 0 0 Z " fill="#3372CE" transform="translate(419,1501)"/>
<path d="M0 0 C1.2065625 0.0309375 1.2065625 0.0309375 2.4375 0.0625 C0.81410195 1.77134005 -0.85569053 3.43696717 -2.5625 5.0625 C-3.2225 5.0625 -3.8825 5.0625 -4.5625 5.0625 C-3.43829114 0.08386076 -3.43829114 0.08386076 0 0 Z " fill="#2B6BCF" transform="translate(1277.5625,1436.9375)"/>
<path d="M0 0 C0.66 0.33 1.32 0.66 2 1 C1.67 1.66 1.34 2.32 1 3 C0.34 3 -0.32 3 -1 3 C-1.33 3.99 -1.66 4.98 -2 6 C-5.0625 7.1875 -5.0625 7.1875 -8 8 C-5.33333333 5.33333333 -2.66666667 2.66666667 0 0 Z " fill="#C8E3FB" transform="translate(1317,1407)"/>
<path d="M0 0 C3.99500618 1.3697164 6.80009492 3.25722422 10 6 C8.68 6 7.36 6 6 6 C6 5.34 6 4.68 6 4 C4.02 3.34 2.04 2.68 0 2 C0 1.34 0 0.68 0 0 Z M-1 3 C1 4 1 4 1 4 Z " fill="#2A70CE" transform="translate(722,931)"/>
<path d="M0 0 C-1.12073862 0.83905565 -2.24674547 1.67107831 -3.375 2.5 C-4.00148438 2.9640625 -4.62796875 3.428125 -5.2734375 3.90625 C-7 5 -7 5 -9 5 C-9 4.34 -9 3.68 -9 3 C-8.34 3 -7.68 3 -7 3 C-6.67 2.01 -6.34 1.02 -6 0 C-3 -1 -3 -1 0 0 Z " fill="#D6ECFD" transform="translate(882,928)"/>
<path d="M0 0 C0.33 0 0.66 0 1 0 C1.17835515 4.54805635 0.99785435 7.8794254 -1 12 C-1.66 11.67 -2.32 11.34 -3 11 C-2.01 7.37 -1.02 3.74 0 0 Z " fill="#3171CC" transform="translate(42,554)"/>
<path d="M0 0 C3 1 3 1 4.1875 3.25 C4.99938294 5.99791147 5.16260121 8.15447889 5 11 C0 3.5 0 3.5 0 0 Z " fill="#D2E6FC" transform="translate(1531,484)"/>
<path d="M0 0 C0.66 0 1.32 0 2 0 C1.39301257 4.12751449 -0.03810791 7.3321148 -2 11 C-3.09658936 7.71023192 -2.79953138 6.28696233 -2 3 C-1.34 3 -0.68 3 0 3 C0 2.01 0 1.02 0 0 Z " fill="#D5EBFC" transform="translate(85,444)"/>
<path d="M0 0 C1.17539996 0.92652701 2.34010577 1.86663387 3.5 2.8125 C4.1496875 3.33457031 4.799375 3.85664063 5.46875 4.39453125 C7 6 7 6 7 9 C6.67 8.34 6.34 7.68 6 7 C5.360625 6.9175 4.72125 6.835 4.0625 6.75 C3.381875 6.5025 2.70125 6.255 2 6 C0.75 2.9375 0.75 2.9375 0 0 Z " fill="#2B6CCB" transform="translate(1377,253)"/>
<path d="M0 0 C0.66 0 1.32 0 2 0 C2 0.66 2 1.32 2 2 C3.32 1.67 4.64 1.34 6 1 C6.66 2.65 7.32 4.3 8 6 C4.54074837 4.7508258 1.85306797 3.32472205 -1 1 C-0.67 0.67 -0.34 0.34 0 0 Z " fill="#D8ECFD" transform="translate(1187,103)"/>
<path d="M0 0 C0.66 0.33 1.32 0.66 2 1 C0.35 2.65 -1.3 4.3 -3 6 C-3.99 5.01 -4.98 4.02 -6 3 C-4.03533587 1.93224776 -2.03144641 0.93446535 0 0 Z " fill="#2C70D3" transform="translate(450,85)"/>
<path d="M0 0 C4.95 0.99 4.95 0.99 10 2 C7.8614515 4.1385485 6.86724686 4.42655063 4 5 C4 4.01 4 3.02 4 2 C2.68 2 1.36 2 0 2 C0 1.34 0 0.68 0 0 Z " fill="#DDEFFD" transform="translate(584,1569)"/>
<path d="M0 0 C0 0.66 0 1.32 0 2 C-5.45769231 5.10096154 -5.45769231 5.10096154 -8.203125 4.58984375 C-8.79609375 4.39519531 -9.3890625 4.20054688 -10 4 C-8.71086513 3.32845067 -7.41859796 2.66291141 -6.125 2 C-5.40570312 1.62875 -4.68640625 1.2575 -3.9453125 0.875 C-2 0 -2 0 0 0 Z " fill="#D0E7FC" transform="translate(1168,1509)"/>
<path d="M0 0 C2.34058637 2.12780579 3.70700306 4.11562221 5 7 C3.68 7 2.36 7 1 7 C1 6.01 1 5.02 1 4 C0.34 4 -0.32 4 -1 4 C-0.67 2.68 -0.34 1.36 0 0 Z " fill="#D6E8F9" transform="translate(117,1213)"/>
<path d="M0 0 C0.66 0 1.32 0 2 0 C0.6302836 3.99500618 -1.25722422 6.80009492 -4 10 C-4 8.68 -4 7.36 -4 6 C-3.34 6 -2.68 6 -2 6 C-1.855625 5.195625 -1.71125 4.39125 -1.5625 3.5625 C-1 1 -1 1 0 0 Z " fill="#D4EAFD" transform="translate(923,880)"/>
<path d="M0 0 C0.6875 1.625 0.6875 1.625 1 4 C-0.4375 7.25 -0.4375 7.25 -2 10 C-2.66 10 -3.32 10 -4 10 C-3.52449439 8.51965236 -3.04448784 7.04074979 -2.5625 5.5625 C-2.29566406 4.73878906 -2.02882813 3.91507813 -1.75390625 3.06640625 C-1 1 -1 1 0 0 Z " fill="#2F71CE" transform="translate(938,852)"/>
<path d="M0 0 C0 3 0 3 -1 6 C-1.99 6.33 -2.98 6.66 -4 7 C-4.33 7.66 -4.66 8.32 -5 9 C-5.66 8.67 -6.32 8.34 -7 8 C-4.69 5.36 -2.38 2.72 0 0 Z " fill="#D5ECFD" transform="translate(693,713)"/>
<path d="M0 0 C0.66 0.99 1.32 1.98 2 3 C1.125 6.1875 1.125 6.1875 0 9 C-0.99 9 -1.98 9 -3 9 C-2.01 6.03 -1.02 3.06 0 0 Z " fill="#3776CE" transform="translate(49,533)"/>
<path d="M0 0 C0.99 1.32 1.98 2.64 3 4 C2.01 5.32 1.02 6.64 0 8 C-0.66 7.67 -1.32 7.34 -2 7 C-1.34 4.69 -0.68 2.38 0 0 Z " fill="#266FD5" transform="translate(99,421)"/>
<path d="M0 0 C1.05283182 3.15849546 1.29904469 4.030755 0 7 C-2.5625 8.75 -2.5625 8.75 -5 10 C-3.66511872 6.40608886 -2.03977277 3.24509304 0 0 Z " fill="#3672CB" transform="translate(132,366)"/>
<path d="M0 0 C-1.1858237 3.37503669 -2.27573689 5.64722731 -5 8 C-5.36625971 3.48279689 -5.36625971 3.48279689 -3.625 1.1875 C-2 0 -2 0 0 0 Z " fill="#D8ECFE" transform="translate(144,348)"/>
<path d="M0 0 C2.475 0.99 2.475 0.99 5 2 C5 2.99 5 3.98 5 5 C5.66 5.33 6.32 5.66 7 6 C6.67 6.99 6.34 7.98 6 9 C4.02 6.03 2.04 3.06 0 0 Z " fill="#D6EAFC" transform="translate(1435,320)"/>
<path d="M0 0 C0.33 0.66 0.66 1.32 1 2 C0.06694014 4.71435596 -0.62673377 5.78043163 -3.125 7.25 C-3.74375 7.4975 -4.3625 7.745 -5 8 C-4.45773019 4.20411134 -2.79872437 2.52788007 0 0 Z " fill="#1C63CB" transform="translate(230,245)"/>
<path d="M0 0 C0.33 0.66 0.66 1.32 1 2 C0.01 3.32 -0.98 4.64 -2 6 C-3.32 5.67 -4.64 5.34 -6 5 C-4.02 3.35 -2.04 1.7 0 0 Z " fill="#2A6DCF" transform="translate(272,205)"/>
<path d="M0 0 C3.375 0.6875 3.375 0.6875 7 2 C8.4375 4.625 8.4375 4.625 9 7 C5.46627288 5.03681826 2.75520215 2.95929119 0 0 Z " fill="#D0E8FB" transform="translate(1306,186)"/>
<path d="M0 0 C0 0.99 0 1.98 0 3 C-4.455 4.485 -4.455 4.485 -9 6 C-3.2 0 -3.2 0 0 0 Z " fill="#3271CA" transform="translate(360,138)"/>
<path d="M0 0 C-3.96 1.98 -3.96 1.98 -8 4 C-8 2.68 -8 1.36 -8 0 C-4.71303767 -0.79953138 -3.28976808 -1.09658936 0 0 Z " fill="#DBEBFD" transform="translate(398,114)"/>
<path d="M0 0 C3.91211733 1.15585285 6.8745041 2.35534962 10 5 C9.01 5.33 8.02 5.66 7 6 C7 5.34 7 4.68 7 4 C4.03 3.505 4.03 3.505 1 3 C0.67 2.01 0.34 1.02 0 0 Z " fill="#3070C9" transform="translate(1131,77)"/>
<path d="M0 0 C3.96 1.98 3.96 1.98 8 4 C4 6 4 6 2 6 C2 4.68 2 3.36 2 2 C1.34 2 0.68 2 0 2 C0 1.34 0 0.68 0 0 Z " fill="#D9ECFD" transform="translate(409,1496)"/>
<path d="M0 0 C0.33 0.66 0.66 1.32 1 2 C-2.28804981 4.91227269 -4.59885603 6.49701212 -9 7 C-6.24479785 4.04070881 -3.53372712 1.96318174 0 0 Z " fill="#D3E8FD" transform="translate(1247,1461)"/>
<path d="M0 0 C0.66 0.33 1.32 0.66 2 1 C-1.17320782 4.53586014 -3.16743695 6.58578031 -8 7 C-5.4837822 4.39391727 -2.94865641 2.10618315 0 0 Z " fill="#C9E2FB" transform="translate(1262,1450)"/>
<path d="M0 0 C1.32 0.33 2.64 0.66 4 1 C2.35 2.65 0.7 4.3 -1 6 C-1.33 5.01 -1.66 4.02 -2 3 C-1.34 3 -0.68 3 0 3 C0 2.01 0 1.02 0 0 Z " fill="#236ACC" transform="translate(1259,1448)"/>
<path d="M0 0 C1.125 3.75 1.125 3.75 0 6 C-0.66 6 -1.32 6 -2 6 C-2.33 6.99 -2.66 7.98 -3 9 C-3.33 8.34 -3.66 7.68 -4 7 C-3.22265625 5.2734375 -3.22265625 5.2734375 -2.0625 3.375 C-1.381875 2.26125 -0.70125 1.1475 0 0 Z " fill="#DBE9FC" transform="translate(1420,1301)"/>
<path d="M0 0 C2.97 0.495 2.97 0.495 6 1 C6 2.32 6 3.64 6 5 C4.125 4.75 4.125 4.75 2 4 C0.75 1.9375 0.75 1.9375 0 0 Z " fill="#216BCF" transform="translate(167,1285)"/>
<path d="M0 0 C1.65 0 3.3 0 5 0 C5.33 2.64 5.66 5.28 6 8 C1.125 3.375 1.125 3.375 0 0 Z " fill="#2D70CC" transform="translate(143,1252)"/>
<path d="M0 0 C0.99 0.33 1.98 0.66 3 1 C3 1.66 3 2.32 3 3 C3.66 3 4.32 3 5 3 C5.33 4.98 5.66 6.96 6 9 C3.03134491 6.45543849 1.6380249 3.51005335 0 0 Z " fill="#2D6CCB" transform="translate(110,1200)"/>
<path d="M0 0 C0.33 0.66 0.66 1.32 1 2 C0.22265625 3.9453125 0.22265625 3.9453125 -0.9375 6.125 C-1.31777344 6.84945313 -1.69804688 7.57390625 -2.08984375 8.3203125 C-2.39019531 8.87460938 -2.69054688 9.42890625 -3 10 C-3.33 10 -3.66 10 -4 10 C-3.67 7.69 -3.34 5.38 -3 3 C-2.34 3 -1.68 3 -1 3 C-0.67 2.01 -0.34 1.02 0 0 Z " fill="#2768C7" transform="translate(1510,1160)"/>
<path d="M0 0 C1.66666667 0 3.33333333 0 5 0 C4.67 2.31 4.34 4.62 4 7 C2.10786631 4.61426621 0.97608217 2.92824652 0 0 Z " fill="#2167CC" transform="translate(89,1161)"/>
<path d="M0 0 C1.10191901 4.40767604 0.58706842 5.8922935 -1 10 C-1.66 10 -2.32 10 -3 10 C-2.01 6.7 -1.02 3.4 0 0 Z " fill="#C7E1F9" transform="translate(1545,1083)"/>
<path d="M0 0 C0.33 0 0.66 0 1 0 C1.25 6.625 1.25 6.625 -1 10 C-1.66 10 -2.32 10 -3 10 C-2.01 6.7 -1.02 3.4 0 0 Z " fill="#CAE4FB" transform="translate(1554,1058)"/>
<path d="M0 0 C0.33 0.99 0.66 1.98 1 3 C-0.9375 6.1875 -0.9375 6.1875 -3 9 C-3.75 7.3125 -3.75 7.3125 -4 5 C-2.0625 2.25 -2.0625 2.25 0 0 Z " fill="#D5E9FD" transform="translate(685,722)"/>
<path d="M0 0 C2.31 1.98 4.62 3.96 7 6 C6.01 6.33 5.02 6.66 4 7 C1 5 1 5 0.3125 2.375 C0.209375 1.59125 0.10625 0.8075 0 0 Z " fill="#C9E2FB" transform="translate(897,703)"/>
<path d="M0 0 C-1.13499394 3.29148243 -1.99283376 3.9959869 -5.125 5.75 C-6.548125 6.36875 -6.548125 6.36875 -8 7 C-6.47663111 3.31852519 -4.31953005 0 0 0 Z " fill="#E9F4FE" transform="translate(147,344)"/>
<path d="M0 0 C0.66 0.33 1.32 0.66 2 1 C0.02 3.31 -1.96 5.62 -4 8 C-4.99 7.34 -5.98 6.68 -7 6 C-6.38125 5.9175 -5.7625 5.835 -5.125 5.75 C-2.82618538 5.19392091 -2.82618538 5.19392091 -1.8125 3 C-1.544375 2.34 -1.27625 1.68 -1 1 C-0.67 0.67 -0.34 0.34 0 0 Z " fill="#E4F2FE" transform="translate(196,279)"/>
<path d="M0 0 C0.99 0.33 1.98 0.66 3 1 C2.38125 1.2475 1.7625 1.495 1.125 1.75 C-1.35068687 3.20628639 -1.95125002 4.37812506 -3 7 C-3.33 5.68 -3.66 4.36 -4 3 C-2.68 2.67 -1.36 2.34 0 2 C0 1.34 0 0.68 0 0 Z " fill="#C8E2FB" transform="translate(248,224)"/>
<path d="M0 0 C0.99 0.33 1.98 0.66 3 1 C1.87926138 1.83905565 0.75325453 2.67107831 -0.375 3.5 C-1.00148438 3.9640625 -1.62796875 4.428125 -2.2734375 4.90625 C-4 6 -4 6 -6 6 C-5.67 5.01 -5.34 4.02 -5 3 C-4.01 3 -3.02 3 -2 3 C-2 2.34 -2 1.68 -2 1 C-1.34 0.67 -0.68 0.34 0 0 Z " fill="#D4EBFC" transform="translate(361,134)"/>
<path d="M0 0 C3.3125 -0.25 3.3125 -0.25 7 0 C7.99 1.32 8.98 2.64 10 4 C6.7 3.01 3.4 2.02 0 1 C0 0.67 0 0.34 0 0 Z " fill="#D0E8FB" transform="translate(1095,61)"/>
<path d="M0 0 C2.76276177 0.52268466 5.3260876 1.10869587 8 2 C8 2.99 8 3.98 8 5 C4.62496331 3.8141763 2.35277269 2.72426311 0 0 Z " fill="#2F73D1" transform="translate(359,1465)"/>
<path d="M0 0 C2.97 1.65 5.94 3.3 9 5 C8.01 5.66 7.02 6.32 6 7 C5.67 6.01 5.34 5.02 5 4 C4.01 4 3.02 4 2 4 C2 3.34 2 2.68 2 2 C1.34 2 0.68 2 0 2 C0 1.34 0 0.68 0 0 Z " fill="#D6E9FC" transform="translate(352,1461)"/>
<path d="M0 0 C0.33 0 0.66 0 1 0 C1 1.65 1 3.3 1 5 C0.34 5 -0.32 5 -1 5 C-1.33 5.99 -1.66 6.98 -2 8 C-2.66 8 -3.32 8 -4 8 C-2.87548273 5.0280615 -1.77706209 2.66559313 0 0 Z " fill="#D6EBFD" transform="translate(1460,1247)"/>
<path d="M0 0 C0.66 0.33 1.32 0.66 2 1 C0.68 3.31 -0.64 5.62 -2 8 C-2.33 8 -2.66 8 -3 8 C-3 6.02 -3 4.04 -3 2 C-2.01 2 -1.02 2 0 2 C0 1.34 0 0.68 0 0 Z " fill="#296CCB" transform="translate(1504,1171)"/>
<path d="M0 0 C0.66 0 1.32 0 2 0 C0.25 5.75 0.25 5.75 -2 8 C-2.125 5.125 -2.125 5.125 -2 2 C-1.34 1.34 -0.68 0.68 0 0 Z " fill="#2368CB" transform="translate(1513,1152)"/>
<path d="M0 0 C-0.99 0.495 -0.99 0.495 -2 1 C-2.99 2.485 -2.99 2.485 -4 4 C-5.32 2.68 -6.64 1.36 -8 0 C-4.94736336 -0.98120464 -3.05263664 -0.98120464 0 0 Z " fill="#DBEDFB" transform="translate(720,923)"/>
<path d="M0 0 C0.99 0 1.98 0 3 0 C5.1875 2.5 5.1875 2.5 7 5 C6.34 5.66 5.68 6.32 5 7 C3.35 4.69 1.7 2.38 0 0 Z " fill="#D1E8FD" transform="translate(685,896)"/>
<path d="M0 0 C3.93673644 1.31224548 6.22719294 2.91910327 9 6 C4.58763974 6 3.21615077 3.9302707 0 1 C0 0.67 0 0.34 0 0 Z " fill="#2F72C8" transform="translate(887,694)"/>
<path d="M0 0 C0.99 0.33 1.98 0.66 3 1 C0.525 4.465 0.525 4.465 -2 8 C-2.33 6.68 -2.66 5.36 -3 4 C-2.01 3.67 -1.02 3.34 0 3 C0 2.01 0 1.02 0 0 Z " fill="#D6EBFE" transform="translate(171,308)"/>
<path d="M0 0 C0.99 0.33 1.98 0.66 3 1 C3 2.65 3 4.3 3 6 C1.68 5.34 0.36 4.68 -1 4 C-0.67 2.68 -0.34 1.36 0 0 Z " fill="#E0EFFD" transform="translate(1291,170)"/>
<path d="M0 0 C0.33 0.99 0.66 1.98 1 3 C-0.8125 4.0625 -0.8125 4.0625 -3 5 C-3.99 4.67 -4.98 4.34 -6 4 C-4.02 2.68 -2.04 1.36 0 0 Z " fill="#3174D2" transform="translate(318,167)"/>
<path d="M0 0 C-4.75 4 -4.75 4 -7 4 C-7 2.68 -7 1.36 -7 0 C-3.98968256 -0.93423645 -3.13349732 -1.04449911 0 0 Z " fill="#D7EAFC" transform="translate(327,161)"/>
<path d="M0 0 C2.01822917 0.06510417 4.03645833 0.13020833 6.0546875 0.1953125 C4.4296875 1.7578125 4.4296875 1.7578125 2.0546875 3.1953125 C-1.1953125 2.8828125 -1.1953125 2.8828125 -3.9453125 2.1953125 C-1.9453125 0.1953125 -1.9453125 0.1953125 0 0 Z " fill="#E9F4FD" transform="translate(433.9453125,89.8046875)"/>
<path d="M0 0 C-3.72965139 2.03435531 -5.66905042 3 -10 3 C-10 2.34 -10 1.68 -10 1 C-3.71428571 -1.42857143 -3.71428571 -1.42857143 0 0 Z " fill="#3779CB" transform="translate(577,38)"/>
</svg>
